*
G04 Mass Parameters ***
*
G04 Image ***
*
%INC:\USERS\ATRIM_PCB\DESKTOP\TEST\DESIGN31.BOT*%
%ICAS*%
%MOIN*%
%IPPOS*%
%ASAXBY*%
G74*%FSLAN2X34Y34*%
*
G04 Aperture Definitions ***
*
%ADD10C,0.0787*%
%ADD11C,0.0827*%
%ADD12R,0.0827X0.0827*%
%ADD13C,0.0709*%
%ADD14O,0.1102X0.0590*%
%ADD15O,0.0984X0.2165*%
%ADD16O,0.1890X0.0984*%
%ADD17C,0.0748*%
%ADD18R,0.0748X0.0748*%
%ADD19O,0.0590X0.1102*%
%ADD20O,0.1102X0.0512*%
%ADD21R,0.0590X0.0787*%
%ADD22R,0.0787X0.0236*%
%ADD23R,0.0984X0.1220*%
%ADD24R,0.0984X0.0394*%
%ADD25R,0.0590X0.1102*%
%ADD26C,0.0790*%
%ADD27C,0.0079*%
%ADD28C,0.0200*%
%ADD29C,0.0300*%
%ADD30C,0.0400*%
%ADD31C,0.0120*%
%ADD32C,0.0140*%
%ADD33C,0.0866*%
%ADD34R,0.0866X0.0866*%
%ADD35O,0.1142X0.0630*%
%ADD36O,0.1024X0.2205*%
%ADD37O,0.1929X0.1024*%
%ADD38R,0.0787X0.0787*%
%ADD39O,0.0630X0.1142*%
%ADD40O,0.1142X0.0551*%
%ADD41R,0.0630X0.0827*%
%ADD42R,0.0827X0.0276*%
%ADD43R,0.1024X0.1260*%
%ADD44R,0.1024X0.0433*%
%ADD45R,0.0630X0.1142*%
%ADD46C,0.0830*%
%ADD47C,0.0100*%
%ADD48C,0.0020*%
%ADD49C,0.0080*%
%ADD50C,0.0551*%
%ADD51C,0.0060*%
*
G04 Plot Data ***
*
G54D27*
G01X-0000039Y-0000039D02*
Y0001023D01*
X-0000157D01*
Y-0000039D01*
X-0000511D01*
Y-0000157D01*
X-0000157D01*
Y-0000511D01*
X-0000039D01*
Y-0000157D01*
X0001023D01*
Y-0000039D01*
X-0000039D01*
X0026539D02*
X0025477D01*
Y-0000157D01*
X0026539D01*
Y-0000511D01*
X0026657D01*
Y-0000157D01*
X0027011D01*
Y-0000039D01*
X0026657D01*
Y0001023D01*
X0026539D01*
Y-0000039D01*
Y0024039D02*
Y0022977D01*
X0026657D01*
Y0024039D01*
X0027011D01*
Y0024157D01*
X0026657D01*
Y0024511D01*
X0026539D01*
Y0024157D01*
X0025477D01*
Y0024039D01*
X0026539D01*
X-0000039D02*
X0001023D01*
Y0024157D01*
X-0000039D01*
Y0024511D01*
X-0000157D01*
Y0024157D01*
X-0000511D01*
Y0024039D01*
X-0000157D01*
Y0022977D01*
X-0000039D01*
Y0024039D01*
G54D28*
G01X0010000Y0002500D02*
Y0004000D01*
X0014000D01*
X0010000Y0010500D02*
X0008450D01*
Y0004700D01*
X0009150Y0004000D01*
X0010000D01*
Y0002500D01*
X0014000Y0004000D02*
X0013800D01*
Y0006200D01*
X0013950Y0006350D01*
X0015500D01*
X0015750Y0006100D01*
Y0005500D01*
X0010000Y0010500D02*
X0008450D01*
Y0012000D01*
X0011200D01*
X0012500Y0010700D01*
X0013700D01*
X0014000Y0011000D01*
Y0011500D01*
X0007000Y0012500D02*
X0006500D01*
X0006100Y0012900D01*
Y0013700D01*
X0006400Y0014000D01*
X0007800D01*
X0008450Y0013350D01*
Y0010500D01*
X0010000D01*
X0018500Y0011801D02*
X0020251D01*
G54D29*
G01X0014000Y0004000D02*
Y0004250D01*
X0015217Y0003155D02*
X0014594D01*
X0014000Y0003750D01*
Y0004250D01*
Y0004000D01*
X0007000Y0018500D02*
X0007450D01*
X0007900Y0018950D01*
Y0021600D01*
X0007000Y0022500D01*
X0013000Y0009500D02*
Y0009750D01*
X0012550D01*
X0010800Y0011500D01*
X0010000D01*
X0013000D02*
X0012550D01*
X0010550Y0013500D01*
X0010000D01*
Y0005500D02*
X0013000D01*
Y0005250D01*
Y0012500D02*
X0012550D01*
X0010550Y0014500D01*
X0010000D01*
X0013000Y0013500D02*
X0012550D01*
X0010550Y0015500D01*
X0010000D01*
X0013000Y0006250D02*
Y0005250D01*
Y0014500D02*
X0012550D01*
X0010550Y0016500D01*
X0010000D01*
X0007000D02*
X0004000D01*
X0013000Y0015500D02*
X0012550D01*
X0010550Y0017500D01*
X0010000D01*
X0007000D02*
X0004000D01*
X0013000Y0016500D02*
X0012550D01*
X0010550Y0018500D01*
X0010000D01*
X0012000Y0022500D02*
X0009750D01*
X0003500Y0014500D02*
X0002000D01*
X0018250Y0021500D02*
X0017000D01*
X0016000Y0020500D01*
X0007000Y0014500D02*
X0004500D01*
X0013000Y0009500D02*
Y0008500D01*
G54D30*
G01X0014000Y0018500D02*
X0013000D01*
X0014000D02*
Y0017500D01*
Y0016500D01*
X0020000Y0015500D02*
X0019000D01*
X0014000Y0016500D02*
Y0015500D01*
Y0014500D01*
Y0013500D01*
Y0012500D01*
Y0011500D01*
X0017500Y0016000D02*
X0018000Y0015500D01*
X0019000D01*
X0017500Y0016000D02*
Y0018100D01*
X0019250Y0019850D01*
Y0021500D01*
X0014000Y0018500D02*
Y0021250D01*
X0015250Y0022500D01*
X0016000D01*
X0019250Y0021500D02*
Y0022500D01*
X0018550Y0023200D01*
X0016700D01*
X0016000Y0022500D01*
X0025500Y0016000D02*
Y0021400D01*
X0025150Y0021750D01*
X0024400D01*
X0024000Y0021756D01*
X0013000Y0017500D02*
X0012550D01*
X0012000Y0018050D01*
Y0020500D01*
X0010000Y0012500D02*
X0009600D01*
X0009000Y0013100D01*
Y0019750D01*
X0009750Y0020500D01*
X0020251Y0011801D02*
X0021000Y0012550D01*
Y0013500D01*
X0015000D01*
X0002000Y0011000D02*
Y0012200D01*
X0005800D01*
X0006500Y0011500D01*
X0007000D01*
X0002000Y0018500D02*
X0001500D01*
X0000950Y0017950D01*
Y0013250D01*
X0002000Y0012200D01*
Y0011000D01*
X0017000Y0005500D02*
Y0005200D01*
X0016300Y0004500D01*
X0015150D01*
X0014500Y0005150D01*
Y0005500D01*
X0015217Y0001344D02*
X0016250D01*
Y0003350D01*
X0018650D01*
X0019000Y0003000D01*
X0025500Y0016000D02*
Y0004100D01*
X0022050Y0000650D01*
X0016250D01*
Y0001344D01*
X0015217D01*
X0011000Y0002500D02*
Y0001950D01*
X0012300Y0000650D01*
X0016250D01*
Y0001344D01*
X0015217D01*
X0017000Y0005500D02*
Y0005200D01*
X0016250Y0004450D01*
Y0003350D01*
X0018650D01*
X0019000Y0003000D01*
X0015000Y0018500D02*
X0015700D01*
X0016050Y0018850D01*
Y0019450D01*
X0012000D02*
Y0020500D01*
X0022248Y0020380D02*
Y0020398D01*
X0023900Y0022050D01*
X0024000Y0021756D01*
X0004000Y0018500D02*
Y0019550D01*
X0004950Y0020500D01*
X0007000D01*
X0022248Y0020380D02*
Y0016500D01*
X0023000D01*
X0021000Y0015500D02*
Y0016500D01*
X0023000D01*
X0019000D02*
X0021000D01*
Y0015500D01*
X0016500Y0016000D02*
X0015000D01*
Y0015500D01*
Y0016500D02*
Y0015500D01*
Y0013500D02*
X0021675D01*
X0021846Y0013671D01*
X0021000Y0015500D02*
Y0013500D01*
X0015000D01*
X0002000Y0011000D02*
Y0009000D01*
X0015000Y0012500D02*
Y0011500D01*
Y0013500D02*
Y0012500D01*
Y0014500D02*
Y0013500D01*
Y0015500D02*
Y0014500D01*
Y0017500D02*
Y0016500D01*
Y0018500D02*
Y0017500D01*
X0024000Y0019000D02*
X0024500Y0018500D01*
Y0016000D01*
X0024000Y0015500D01*
X0023000D01*
X0004000Y0018500D02*
X0002000D01*
X0012000Y0020500D02*
X0009750D01*
X0005000Y0011000D02*
X0005500Y0010500D01*
X0007000D01*
Y0009500D02*
X0005500D01*
X0005000Y0009000D01*
X0023000Y0015500D02*
X0022000D01*
X0005000Y0009000D02*
X0003000D01*
X0005000Y0011000D02*
X0003000D01*
G54D31*
G01X0015750Y0009500D02*
Y0008950D01*
X0014100Y0007300D01*
X0010800D01*
X0010600Y0007500D01*
X0010000D01*
X0017000Y0009500D02*
Y0009863D01*
X0017600Y0010463D01*
X0018500D01*
X0010000Y0008500D02*
X0010500D01*
X0011100Y0007900D01*
X0013650D01*
X0013850Y0008100D01*
Y0009850D01*
X0014200Y0010200D01*
X0014904D01*
X0016654Y0011950D01*
X0017600D01*
X0017864Y0012214D01*
X0018500D01*
X0017000Y0009500D02*
X0015750D01*
X0014500D02*
Y0008150D01*
X0013950Y0007600D01*
X0010950D01*
X0010500Y0008050D01*
X0009350D01*
X0009150Y0008250D01*
Y0009200D01*
X0009450Y0009500D01*
X0010000D01*
X0018500Y0010915D02*
X0019535D01*
X0020000Y0010450D01*
Y0002250D01*
X0019750Y0002000D01*
X0019000D01*
X0010000Y0006500D02*
X0010500D01*
X0011000Y0007000D01*
X0017700D01*
X0018000Y0006700D01*
Y0004250D01*
X0007000Y0013500D02*
X0007600D01*
X0008000Y0013100D01*
Y0008350D01*
X0007650Y0008000D01*
X0006400D01*
X0005450Y0007050D01*
Y0004650D01*
X0007000Y0003100D01*
Y0002500D01*
X0017283Y0002250D02*
X0017533Y0002000D01*
X0019000D01*
X0007000Y0008500D02*
X0006450D01*
X0005150Y0007200D01*
Y0004500D01*
X0006000Y0003650D01*
Y0002500D01*
X0008000D02*
Y0003100D01*
X0007750Y0003350D01*
X0007200D01*
X0005750Y0004800D01*
Y0006900D01*
X0006350Y0007500D01*
X0007000D01*
X0009000Y0002500D02*
Y0003000D01*
X0008350Y0003650D01*
X0007350D01*
X0006050Y0004950D01*
Y0006250D01*
X0006300Y0006500D01*
X0007000D01*
X0018500Y0011368D02*
X0017864D01*
X0017582Y0011650D01*
X0016800D01*
X0014750Y0009600D01*
X0014600D01*
X0014500Y0009500D01*
X0018500Y0010049D02*
X0017849D01*
X0017700Y0009900D01*
Y0007000D01*
X0018000Y0006700D01*
Y0004250D01*
G54D10*
X0007000Y0020500D03*
X0009750D03*
Y0022500D03*
X0007000D03*
X0014500Y0005500D03*
Y0009500D03*
X0017000Y0005500D03*
Y0009500D03*
X0019000Y0015500D03*
Y0016500D03*
X0023000Y0015500D03*
Y0016500D03*
X0019000Y0003000D03*
Y0002000D03*
X0003000Y0009000D03*
X0002000D03*
X0003000Y0011000D03*
X0002000D03*
G54D11*
X0012000Y0020500D03*
X0016000D03*
X0015750Y0009500D03*
Y0005500D03*
X0018000Y0004250D03*
X0014000D03*
X0002000Y0018500D03*
Y0014500D03*
X0016000Y0022500D03*
X0012000D03*
X0016500Y0016000D03*
X0025500D03*
G54D12*
X0017500D03*
X0024500D03*
G54D13*
X0013000Y0005250D03*
Y0006250D03*
Y0008500D03*
Y0009500D03*
X0015000Y0011500D03*
Y0012500D03*
Y0013500D03*
Y0014500D03*
Y0015500D03*
Y0016500D03*
Y0017500D03*
Y0018500D03*
X0014000Y0011500D03*
Y0012500D03*
Y0013500D03*
Y0014500D03*
Y0015500D03*
Y0016500D03*
Y0017500D03*
Y0018500D03*
X0013000D03*
Y0017500D03*
Y0016500D03*
Y0015500D03*
Y0014500D03*
Y0013500D03*
Y0012500D03*
Y0011500D03*
G54D14*
X0004000Y0018500D03*
Y0017500D03*
Y0016500D03*
G54D15*
X0022248Y0020380D03*
G54D16*
X0024000Y0019000D03*
Y0021756D03*
G54D17*
X0016050Y0019450D03*
X0012000D03*
X0018250Y0021500D03*
X0003500Y0014500D03*
G54D18*
X0019250Y0021500D03*
X0004500Y0014500D03*
G54D19*
X0021000Y0015500D03*
X0020000D03*
X0011000Y0002500D03*
X0010000D03*
X0009000D03*
X0008000D03*
X0007000D03*
X0006000D03*
G54D20*
X0007000Y0018500D03*
Y0017500D03*
Y0016500D03*
Y0015500D03*
Y0014500D03*
Y0013500D03*
Y0012500D03*
Y0011500D03*
Y0010500D03*
Y0009500D03*
Y0008500D03*
Y0007500D03*
Y0006500D03*
Y0005500D03*
X0010000D03*
Y0006500D03*
Y0007500D03*
Y0008500D03*
Y0009500D03*
Y0010500D03*
Y0011500D03*
Y0012500D03*
Y0013500D03*
Y0014500D03*
Y0015500D03*
Y0016500D03*
Y0017500D03*
Y0018500D03*
G54D21*
X0021846Y0013671D03*
Y0007963D03*
G54D22*
X0018500Y0008750D03*
Y0009222D03*
Y0009636D03*
Y0010049D03*
Y0010463D03*
Y0010915D03*
Y0011368D03*
Y0011801D03*
Y0012214D03*
Y0012687D03*
G54D23*
X0017283Y0002250D03*
G54D24*
X0015217Y0001344D03*
Y0002250D03*
Y0003155D03*
G54D25*
X0022000Y0015500D03*
G54D26*
X0005000Y0009000D03*
Y0011000D03*
G54D32*
%LPC*%
Y0009000D03*
Y0011000D03*
X0022000Y0015500D03*
X0021000D03*
X0020000D03*
X0007000Y0018500D03*
Y0017500D03*
Y0016500D03*
Y0015500D03*
Y0014500D03*
Y0013500D03*
Y0012500D03*
Y0011500D03*
Y0010500D03*
Y0009500D03*
Y0008500D03*
Y0007500D03*
Y0006500D03*
Y0005500D03*
X0010000D03*
Y0006500D03*
Y0007500D03*
Y0008500D03*
Y0009500D03*
Y0010500D03*
Y0011500D03*
Y0012500D03*
Y0013500D03*
Y0014500D03*
Y0015500D03*
Y0016500D03*
Y0017500D03*
Y0018500D03*
X0007000Y0020500D03*
X0009750D03*
Y0022500D03*
X0007000D03*
X0012000Y0020500D03*
X0016000D03*
X0015750Y0009500D03*
Y0005500D03*
X0018000Y0004250D03*
X0014000D03*
X0002000Y0018500D03*
Y0014500D03*
X0016000Y0022500D03*
X0012000D03*
X0011000Y0002500D03*
X0010000D03*
X0009000D03*
X0008000D03*
X0007000D03*
X0006000D03*
X0019250Y0021500D03*
X0018250D03*
X0004500Y0014500D03*
X0003500D03*
X0024000Y0019000D03*
Y0021756D03*
X0022248Y0020380D03*
X0014500Y0005500D03*
Y0009500D03*
X0017000Y0005500D03*
Y0009500D03*
X0013000Y0005250D03*
Y0006250D03*
Y0008500D03*
Y0009500D03*
X0004000Y0018500D03*
Y0017500D03*
Y0016500D03*
X0015000Y0011500D03*
Y0012500D03*
Y0013500D03*
Y0014500D03*
Y0015500D03*
Y0016500D03*
Y0017500D03*
Y0018500D03*
X0014000Y0011500D03*
Y0012500D03*
Y0013500D03*
Y0014500D03*
Y0015500D03*
Y0016500D03*
Y0017500D03*
Y0018500D03*
X0013000D03*
Y0017500D03*
Y0016500D03*
Y0015500D03*
Y0014500D03*
Y0013500D03*
Y0012500D03*
Y0011500D03*
X0017500Y0016000D03*
X0016500D03*
X0019000Y0015500D03*
Y0016500D03*
X0023000Y0015500D03*
Y0016500D03*
X0024500Y0016000D03*
X0025500D03*
X0019000Y0003000D03*
Y0002000D03*
X0003000Y0009000D03*
X0002000D03*
X0003000Y0011000D03*
X0002000D03*
X0016050Y0019450D03*
X0012000D03*
%LPD*%
M02*
