*
G04 Mass Parameters ***
*
G04 Image ***
*
%INC:\USERS\ATRIM_PCB\DESKTOP\TEST\DESIGN31.SSB*%
%ICAS*%
%MOIN*%
%IPPOS*%
%ASAXBY*%
G74*%FSLAN2X34Y34*%
*
G04 Aperture Definitions ***
*
%ADD10C,0.0787*%
%ADD11C,0.0827*%
%ADD12R,0.0827X0.0827*%
%ADD13C,0.0709*%
%ADD14O,0.1102X0.0590*%
%ADD15O,0.0984X0.2165*%
%ADD16O,0.1890X0.0984*%
%ADD17C,0.0748*%
%ADD18R,0.0748X0.0748*%
%ADD19O,0.0590X0.1102*%
%ADD20O,0.1102X0.0512*%
%ADD21R,0.0590X0.0787*%
%ADD22R,0.0787X0.0236*%
%ADD23R,0.0984X0.1220*%
%ADD24R,0.0984X0.0394*%
%ADD25R,0.0590X0.1102*%
%ADD26C,0.0790*%
%ADD27C,0.0079*%
%ADD28C,0.0200*%
%ADD29C,0.0300*%
%ADD30C,0.0400*%
%ADD31C,0.0120*%
%ADD32C,0.0140*%
%ADD33C,0.0866*%
%ADD34R,0.0866X0.0866*%
%ADD35O,0.1142X0.0630*%
%ADD36O,0.1024X0.2205*%
%ADD37O,0.1929X0.1024*%
%ADD38R,0.0787X0.0787*%
%ADD39O,0.0630X0.1142*%
%ADD40O,0.1142X0.0551*%
%ADD41R,0.0630X0.0827*%
%ADD42R,0.0827X0.0276*%
%ADD43R,0.1024X0.1260*%
%ADD44R,0.1024X0.0433*%
%ADD45R,0.0630X0.1142*%
%ADD46C,0.0830*%
%ADD47C,0.0100*%
%ADD48C,0.0020*%
%ADD49C,0.0080*%
%ADD50C,0.0551*%
%ADD51C,0.0060*%
*
G04 Plot Data ***
*
G54D27*
G01X-0000039Y-0000039D02*
Y0001023D01*
X-0000157D01*
Y-0000039D01*
X-0000511D01*
Y-0000157D01*
X-0000157D01*
Y-0000511D01*
X-0000039D01*
Y-0000157D01*
X0001023D01*
Y-0000039D01*
X-0000039D01*
X0026539D02*
X0025477D01*
Y-0000157D01*
X0026539D01*
Y-0000511D01*
X0026657D01*
Y-0000157D01*
X0027011D01*
Y-0000039D01*
X0026657D01*
Y0001023D01*
X0026539D01*
Y-0000039D01*
Y0024039D02*
Y0022977D01*
X0026657D01*
Y0024039D01*
X0027011D01*
Y0024157D01*
X0026657D01*
Y0024511D01*
X0026539D01*
Y0024157D01*
X0025477D01*
Y0024039D01*
X0026539D01*
X-0000039D02*
X0001023D01*
Y0024157D01*
X-0000039D01*
Y0024511D01*
X-0000157D01*
Y0024157D01*
X-0000511D01*
Y0024039D01*
X-0000157D01*
Y0022977D01*
X-0000039D01*
Y0024039D01*
X0016644Y0002250D02*
Y0003530D01*
X0015856D01*
Y0000969D01*
X0016644D01*
Y0002742D01*
X0018894Y0011388D02*
Y0013474D01*
X0026373D01*
Y0008159D01*
X0018894D01*
Y0011781D01*
X0019000Y0009550D02*
Y0012800D01*
X0023421D01*
Y0009300D01*
X0021600D01*
X0021400Y0009500D01*
X0020750D01*
Y0009300D01*
X0020100D01*
X0019850Y0009550D01*
X0019000D01*
G54D51*
G01X0013894Y0002128D02*
X0013822Y0002055D01*
X0013677D01*
X0013605Y0002128D01*
Y0002200D01*
X0013749Y0002344D01*
X0013605Y0002489D01*
X0013894D01*
X0014050D02*
Y0002128D01*
X0014086Y0002055D01*
X0014303D01*
X0014339Y0002128D01*
Y0002489D01*
X0020730Y0006780D02*
X0021019D01*
X0020730Y0007069D01*
Y0007142D01*
X0020766Y0007214D01*
X0020983D01*
X0021019Y0007142D01*
X0021175Y0007214D02*
Y0006853D01*
X0021211Y0006780D01*
X0021428D01*
X0021464Y0006853D01*
Y0007214D01*
G54D32*
%LPC*%
X0005000Y0009000D03*
Y0011000D03*
X0022000Y0015500D03*
X0021000D03*
X0020000D03*
X0007000Y0018500D03*
Y0017500D03*
Y0016500D03*
Y0015500D03*
Y0014500D03*
Y0013500D03*
Y0012500D03*
Y0011500D03*
Y0010500D03*
Y0009500D03*
Y0008500D03*
Y0007500D03*
Y0006500D03*
Y0005500D03*
X0010000D03*
Y0006500D03*
Y0007500D03*
Y0008500D03*
Y0009500D03*
Y0010500D03*
Y0011500D03*
Y0012500D03*
Y0013500D03*
Y0014500D03*
Y0015500D03*
Y0016500D03*
Y0017500D03*
Y0018500D03*
X0007000Y0020500D03*
X0009750D03*
Y0022500D03*
X0007000D03*
X0012000Y0020500D03*
X0016000D03*
X0015750Y0009500D03*
Y0005500D03*
X0018000Y0004250D03*
X0014000D03*
X0002000Y0018500D03*
Y0014500D03*
X0016000Y0022500D03*
X0012000D03*
X0011000Y0002500D03*
X0010000D03*
X0009000D03*
X0008000D03*
X0007000D03*
X0006000D03*
X0019250Y0021500D03*
X0018250D03*
X0004500Y0014500D03*
X0003500D03*
X0024000Y0019000D03*
Y0021756D03*
X0022248Y0020380D03*
X0014500Y0005500D03*
Y0009500D03*
X0017000Y0005500D03*
Y0009500D03*
X0013000Y0005250D03*
Y0006250D03*
Y0008500D03*
Y0009500D03*
X0004000Y0018500D03*
Y0017500D03*
Y0016500D03*
X0015000Y0011500D03*
Y0012500D03*
Y0013500D03*
Y0014500D03*
Y0015500D03*
Y0016500D03*
Y0017500D03*
Y0018500D03*
X0014000Y0011500D03*
Y0012500D03*
Y0013500D03*
Y0014500D03*
Y0015500D03*
Y0016500D03*
Y0017500D03*
Y0018500D03*
X0013000D03*
Y0017500D03*
Y0016500D03*
Y0015500D03*
Y0014500D03*
Y0013500D03*
Y0012500D03*
Y0011500D03*
X0017500Y0016000D03*
X0016500D03*
X0019000Y0015500D03*
Y0016500D03*
X0023000Y0015500D03*
Y0016500D03*
X0024500Y0016000D03*
X0025500D03*
X0019000Y0003000D03*
Y0002000D03*
X0003000Y0009000D03*
X0002000D03*
X0003000Y0011000D03*
X0002000D03*
X0016050Y0019450D03*
X0012000D03*
%LPD*%
M02*
