%
T1C0.035F200S100
X002000Y009000
X003000Y009000
X003000Y011000
X002000Y011000
X003500Y014500
X004000Y016500
X004000Y017500
X004000Y018500
X004500Y014500
X005000Y009000
X005000Y011000
X006000Y002500
X007000Y002500
X007000Y005500
X007000Y006500
X007000Y007500
X007000Y008500
X007000Y009500
X007000Y010500
X007000Y011500
X007000Y012500
X007000Y013500
X007000Y014500
X007000Y015500
X007000Y016500
X007000Y017500
X007000Y018500
X008000Y002500
X009000Y002500
X010000Y002500
X011000Y002500
X010000Y005500
X010000Y006500
X010000Y007500
X010000Y008500
X010000Y009500
X010000Y010500
X010000Y011500
X010000Y012500
X010000Y013500
X010000Y014500
X010000Y015500
X010000Y016500
X010000Y017500
X010000Y018500
X012000Y019450
X013000Y005250
X013000Y006250
X013000Y008500
X013000Y009500
X013000Y011500
X013000Y012500
X013000Y013500
X013000Y014500
X013000Y015500
X013000Y016500
X013000Y017500
X013000Y018500
X014000Y011500
X014000Y012500
X014000Y013500
X014000Y014500
X014000Y015500
X014000Y016500
X014000Y017500
X014000Y018500
X015000Y011500
X015000Y012500
X015000Y013500
X015000Y014500
X015000Y015500
X015000Y016500
X015000Y017500
X015000Y018500
X016050Y019450
X018250Y021500
X019000Y002000
X019000Y003000
X019000Y015500
X019000Y016500
X019250Y021500
X022248Y020380
X023000Y015500
X023000Y016500
X024000Y019000
X024000Y021756
T2C0.039F200S100
X002000Y014500
X002000Y018500
X007000Y020500
X007000Y022500
X009750Y020500
X009750Y022500
X012000Y020500
X012000Y022500
X014000Y004250
X014500Y005500
X014500Y009500
X015750Y005500
X015750Y009500
X016000Y020500
X016000Y022500
X016500Y016000
X017000Y005500
X017000Y009500
X017500Y016000
X018000Y004250
X020000Y015500
X021000Y015500
X022000Y015500
X024500Y016000
X025500Y016000
M30
