*
G04 Mass Parameters ***
*
G04 Image ***
*
%IND:\ATRIM ELECTRONICS(P)LTD\MODULES\81.HEX INJECTOR\HEX INJECTOR V1.1\DESIGN31.BOT*%
%ICAS*%
%MOIN*%
%IPPOS*%
%ASAXBY*%
G74*%FSLAN2X34Y34*%
*
G04 Aperture Definitions ***
*
%ADD10C,0.0787*%
%ADD11C,0.0827*%
%ADD12R,0.0827X0.0827*%
%ADD13C,0.0709*%
%ADD14O,0.1102X0.0590*%
%ADD15O,0.0984X0.2165*%
%ADD16O,0.1890X0.0984*%
%ADD17C,0.0748*%
%ADD18R,0.0748X0.0748*%
%ADD19O,0.0590X0.1102*%
%ADD20O,0.1102X0.0512*%
%ADD21R,0.0590X0.0787*%
%ADD22R,0.0787X0.0236*%
%ADD23R,0.0984X0.1220*%
%ADD24R,0.0984X0.0394*%
%ADD25R,0.0590X0.1102*%
%ADD26C,0.0790*%
%ADD27C,0.0079*%
%ADD28C,0.0200*%
%ADD29C,0.0300*%
%ADD30C,0.0400*%
%ADD31C,0.0120*%
%ADD32C,0.0140*%
%ADD33C,0.0866*%
%ADD34R,0.0866X0.0866*%
%ADD35O,0.1142X0.0630*%
%ADD36O,0.1024X0.2205*%
%ADD37O,0.1929X0.1024*%
%ADD38R,0.0787X0.0787*%
%ADD39O,0.0630X0.1142*%
%ADD40O,0.1142X0.0551*%
%ADD41R,0.0630X0.0827*%
%ADD42R,0.0827X0.0276*%
%ADD43R,0.1024X0.1260*%
%ADD44R,0.1024X0.0433*%
%ADD45R,0.0630X0.1142*%
%ADD46C,0.0830*%
%ADD47C,0.0100*%
%ADD48C,0.0020*%
%ADD49C,0.0080*%
%ADD50C,0.0551*%
%ADD51C,0.0060*%
%ADD52O,0.0590X0.0984*%
%ADD53O,0.0512X0.1102*%
%ADD54C,0.0180*%
%ADD55O,0.0630X0.1024*%
%ADD56O,0.0551X0.1142*%
*
G04 Plot Data ***
*
G54D27*
G01X-0000039Y-0000039D02*
Y0001023D01*
X-0000157D01*
Y-0000039D01*
X-0000511D01*
Y-0000157D01*
X-0000157D01*
Y-0000511D01*
X-0000039D01*
Y-0000157D01*
X0001023D01*
Y-0000039D01*
X-0000039D01*
X0035789D02*
X0034727D01*
Y-0000157D01*
X0035789D01*
Y-0000511D01*
X0035907D01*
Y-0000157D01*
X0036261D01*
Y-0000039D01*
X0035907D01*
Y0001023D01*
X0035789D01*
Y-0000039D01*
Y0020289D02*
Y0019227D01*
X0035907D01*
Y0020289D01*
X0036261D01*
Y0020407D01*
X0035907D01*
Y0020761D01*
X0035789D01*
Y0020407D01*
X0034727D01*
Y0020289D01*
X0035789D01*
X-0000039D02*
X0001023D01*
Y0020407D01*
X-0000039D01*
Y0020761D01*
X-0000157D01*
Y0020407D01*
X-0000511D01*
Y0020289D01*
X-0000157D01*
Y0019227D01*
X-0000039D01*
Y0020289D01*
G54D28*
G01X0007500Y0005000D02*
Y0004000D01*
X0006000Y0002500D01*
X0028375Y0010989D02*
X0030972D01*
X0031721Y0011738D01*
Y0012858D01*
X0013000Y0010000D02*
Y0009500D01*
X0012700Y0009200D01*
Y0005300D01*
X0013000Y0005000D01*
X0013500D01*
X0006000Y0002500D02*
X0007500Y0004000D01*
X0008500D01*
X0009000Y0003500D01*
Y0002500D01*
G54D29*
G01X0029250Y0018000D02*
X0027750Y0016500D01*
X0033750Y0017250D02*
Y0015250D01*
X0031750D01*
X0033750Y0017250D02*
Y0018600D01*
X0033350Y0019000D01*
X0028500D01*
X0024750Y0015250D01*
Y0015000D01*
G54D30*
G01X0034750Y0007150D02*
Y0015250D01*
Y0017250D02*
Y0015250D01*
X0015500Y0005000D02*
X0013500D01*
X0015500D02*
Y0003750D01*
X0015750Y0003500D01*
X0019000Y0004500D02*
Y0004000D01*
X0018500Y0003500D01*
X0021967Y0005844D02*
X0019000D01*
Y0004500D01*
X0024250Y0005000D02*
X0023600D01*
X0022755Y0005844D01*
X0021967D01*
X0027250Y0013500D02*
Y0012750D01*
X0026750Y0012250D01*
X0023500Y0013500D02*
X0022250D01*
X0031721Y0012858D02*
Y0014050D01*
X0030750D01*
Y0015250D01*
X0027250Y0013500D02*
X0027800Y0014050D01*
X0030750D01*
Y0015250D01*
X0031721Y0012858D02*
Y0014050D01*
X0034750D01*
Y0015250D01*
X0022250Y0013500D02*
X0023000D01*
Y0016300D01*
X0022998Y0016380D01*
X0030750Y0015250D02*
Y0016100D01*
X0031150Y0016500D01*
X0031750D01*
X0002000Y0012500D02*
X0002900D01*
X0005750Y0015350D01*
Y0017500D01*
X0009750D02*
Y0019700D01*
X0020750D01*
Y0017500D01*
Y0019700D01*
X0024750D01*
Y0017756D01*
X0022998Y0016380D02*
Y0017148D01*
X0023606Y0017756D01*
X0024750D01*
Y0019700D01*
X0033750D01*
X0034750Y0018700D01*
Y0017250D01*
X0005750Y0017500D02*
Y0018400D01*
X0007050Y0019700D01*
X0009750D01*
Y0017500D01*
X0029500Y0005000D02*
Y0005500D01*
X0029150Y0005850D01*
X0025500D01*
Y0006250D01*
X0024250Y0005000D02*
X0024750D01*
X0025500Y0005750D01*
Y0006250D01*
X0015500Y0005000D02*
X0016100D01*
X0016950Y0005850D01*
X0018627Y0005844D01*
X0019000D01*
Y0004500D01*
X0029500Y0005000D02*
X0031000D01*
X0032050Y0003950D01*
Y0003150D01*
X0032700Y0002500D01*
X0034050D01*
X0034750Y0003200D01*
Y0007150D01*
X0031721D01*
G54D31*
G01X0020500Y0009500D02*
X0020250Y0009750D01*
Y0010050D01*
X0018000Y0012300D01*
Y0013000D01*
X0028375Y0009237D02*
X0027837D01*
X0027700Y0009100D01*
Y0008600D01*
X0027350Y0008250D01*
X0021300D01*
X0020500Y0009050D01*
Y0009500D01*
X0028375Y0010556D02*
X0027856D01*
X0027456Y0010150D01*
X0025750D01*
X0023800Y0012100D01*
X0022250D01*
Y0009500D01*
Y0012100D01*
X0020250D01*
X0019550Y0012800D01*
Y0013650D01*
X0019100Y0014100D01*
X0016800D01*
X0016500Y0013800D01*
Y0012450D01*
X0016200Y0012150D01*
X0015200D01*
X0015000Y0012350D01*
Y0013000D01*
X0006000D02*
Y0013450D01*
X0008750Y0016200D01*
Y0017500D01*
X0019000Y0010000D02*
Y0008500D01*
X0024500Y0003500D02*
X0023550Y0002550D01*
X0020850D01*
X0020050Y0003350D01*
Y0004550D01*
Y0008500D02*
X0019000D01*
X0018000Y0010000D02*
Y0011100D01*
X0017550Y0011550D01*
X0011100D01*
X0010700Y0011950D01*
X0003950D01*
X0002500Y0010500D01*
X0002000D01*
X0017000Y0010000D02*
Y0010650D01*
X0016350Y0011300D01*
X0010950D01*
X0010600Y0011650D01*
X0004100D01*
X0003000Y0010550D01*
Y0009750D01*
X0002750Y0009500D01*
X0002000D01*
Y0007500D02*
X0002800D01*
X0003600Y0008300D01*
Y0010250D01*
X0004400Y0011050D01*
X0010350D01*
X0010500Y0010900D01*
Y0009400D01*
X0010750Y0009150D01*
X0011250D01*
X0011500Y0009400D01*
Y0010700D01*
X0011850Y0011050D01*
X0015550D01*
X0016000Y0010600D01*
Y0010000D01*
X0002000Y0008500D02*
X0002750D01*
X0003300Y0009050D01*
Y0010400D01*
X0004250Y0011350D01*
X0010450D01*
X0011000Y0010800D01*
Y0010000D01*
X0029000Y0003500D02*
X0027700D01*
Y0004450D01*
X0028250Y0005000D01*
X0029000Y0003500D02*
X0027700D01*
Y0001350D01*
X0027100Y0000750D01*
X0018050D01*
X0016650Y0002150D01*
X0015200D01*
X0014400Y0001350D01*
X0013100D01*
X0012650Y0001800D01*
Y0003050D01*
X0012100Y0003600D01*
X0011000D01*
X0009700Y0004900D01*
Y0006050D01*
X0009000Y0006750D01*
Y0010000D01*
X0033500Y0005000D02*
Y0003500D01*
Y0005000D02*
X0032200D01*
X0030550Y0006650D01*
X0026750D01*
Y0009450D02*
X0025850D01*
X0025050Y0010250D01*
X0023300D01*
X0022850Y0009800D01*
Y0009050D01*
X0022650Y0008850D01*
X0021800D01*
X0021500Y0009150D01*
Y0010400D01*
X0020900Y0011000D01*
X0020450D01*
X0019000Y0012450D01*
Y0013000D01*
X0018500Y0001500D02*
X0018350Y0001550D01*
X0017500Y0002400D01*
Y0004500D01*
X0006000Y0010000D02*
Y0008400D01*
X0008800Y0005600D01*
Y0004450D01*
X0010000Y0003250D01*
Y0002500D01*
Y0002050D01*
X0011150Y0000900D01*
X0015400D01*
X0015750Y0001250D01*
Y0001500D01*
X0007000Y0010000D02*
Y0007850D01*
X0009100Y0005750D01*
Y0004600D01*
X0011000Y0002700D01*
Y0002500D01*
X0012000D02*
Y0003000D01*
X0011700Y0003300D01*
X0010850D01*
X0009400Y0004750D01*
Y0005900D01*
X0008000Y0007300D01*
Y0010000D01*
X0025500Y0007250D02*
X0024533D01*
X0024033Y0006750D01*
X0028375Y0010103D02*
X0029147D01*
X0029550Y0009700D01*
Y0007800D01*
X0029150Y0007400D01*
X0025650D01*
X0025500Y0007250D01*
X0007750Y0017500D02*
Y0018150D01*
X0007600Y0018300D01*
X0006500D01*
X0006250Y0018050D01*
Y0015150D01*
X0003100Y0012000D01*
X0001400D01*
X0000800Y0011400D01*
Y0006800D01*
X0001550Y0006050D01*
X0004450D01*
X0005000Y0005500D01*
Y0003500D01*
X0014000Y0003000D02*
X0012200Y0004800D01*
Y0005500D01*
X0010000Y0007700D01*
Y0010000D01*
X0015500Y0008000D02*
Y0006000D01*
Y0008000D02*
Y0009000D01*
X0015000Y0009500D01*
Y0010000D01*
X0013500Y0008000D02*
Y0006000D01*
Y0008000D02*
Y0009000D01*
X0014000Y0009500D01*
Y0010000D01*
X0011500Y0005000D02*
X0011550Y0004950D01*
Y0004800D01*
X0013200Y0003150D01*
Y0002450D01*
X0013650Y0002000D01*
X0014000D01*
X0024750Y0009500D02*
X0023500D01*
X0024100D01*
Y0008550D01*
X0027250D01*
X0027400Y0008700D01*
Y0009250D01*
X0027800Y0009650D01*
X0028375D01*
X0017000Y0013000D02*
Y0013650D01*
X0017150Y0013800D01*
X0018350D01*
X0018500Y0013650D01*
Y0012350D01*
X0020250Y0010600D01*
X0020700D01*
X0021150Y0010150D01*
Y0008950D01*
X0021550Y0008550D01*
X0024100D01*
Y0009500D01*
X0023500D01*
X0016000Y0013000D02*
Y0014050D01*
X0016350Y0014400D01*
X0019250D01*
X0019850Y0013800D01*
Y0012950D01*
X0020400Y0012400D01*
X0024000D01*
X0025900Y0010500D01*
X0027350D01*
X0027550Y0010700D01*
Y0011252D01*
X0027700Y0011402D01*
X0028375D01*
X0031721Y0007150D02*
X0034750D01*
X0010750Y0017500D02*
Y0016750D01*
X0007800Y0013800D01*
X0007300D01*
X0007000Y0013500D01*
Y0013000D01*
X0018750Y0017500D02*
Y0017100D01*
X0017050Y0015400D01*
X0011300D01*
X0011000Y0015100D01*
Y0013000D01*
X0017750Y0017500D02*
Y0017100D01*
X0016350Y0015700D01*
X0011150D01*
X0010000Y0014550D01*
Y0013000D01*
X0016750Y0017500D02*
Y0017050D01*
X0015700Y0016000D01*
X0010950D01*
X0009000Y0014050D01*
Y0013000D01*
X0015750Y0017500D02*
Y0017100D01*
X0014950Y0016300D01*
X0010800D01*
X0008000Y0013500D01*
Y0013000D01*
X0026400Y0013500D02*
X0026250D01*
X0017500Y0008500D02*
X0017700D01*
X0018500Y0009300D01*
Y0011200D01*
X0017900Y0011800D01*
Y0011850D01*
X0017850D01*
X0018500Y0011200D01*
Y0009300D01*
X0017700Y0008500D01*
X0017500D01*
X0030750Y0001500D02*
X0029000D01*
X0026250D02*
X0024500D01*
X0026250Y0013500D02*
X0024750D01*
X0020500D02*
X0021250Y0012750D01*
X0024000D01*
X0024750Y0013500D01*
X0029750Y0015250D02*
X0028750D01*
Y0016200D01*
X0030250Y0017700D01*
Y0018000D01*
X0002000Y0011500D02*
X0003050D01*
X0006750Y0015200D01*
Y0017500D01*
X0026250Y0013500D02*
Y0014500D01*
X0027000Y0015250D01*
X0029750D01*
X0026750Y0011250D02*
X0026250D01*
X0025800Y0011700D01*
Y0013500D01*
X0024750D01*
X0021967Y0007655D02*
X0020967D01*
X0020717Y0007405D01*
X0018594D01*
X0017500Y0008500D01*
X0008000Y0002500D02*
Y0001700D01*
X0005350D01*
X0004950Y0002100D01*
Y0002500D01*
X0004000D01*
X0008000D02*
Y0001700D01*
X0009300Y0000400D01*
X0027250D01*
X0028350Y0001500D01*
X0029000D01*
X0017500Y0008500D02*
X0016500D01*
X0015500Y0009500D01*
Y0010500D01*
X0015200Y0010800D01*
X0012300D01*
X0012000Y0010500D01*
Y0010000D01*
X0019750Y0017500D02*
Y0016900D01*
X0017950Y0015100D01*
X0014450D01*
X0014000Y0014650D01*
Y0013000D01*
X0002000Y0011500D02*
X0001400D01*
X0001100Y0011200D01*
Y0006950D01*
X0001650Y0006400D01*
X0004600D01*
X0005750Y0005250D01*
Y0003300D01*
X0004950Y0002500D01*
X0004000D01*
X0017500Y0008500D02*
X0017700D01*
X0018500Y0009300D01*
Y0011200D01*
X0017850Y0011850D01*
X0011800D01*
X0011500Y0012150D01*
Y0013650D01*
X0011950Y0014100D01*
X0014000D01*
Y0013000D01*
X0019750Y0017500D02*
Y0018000D01*
X0019450Y0018300D01*
X0017750D01*
Y0018800D01*
X0021600D02*
Y0016400D01*
X0020500Y0015300D01*
Y0013500D01*
X0019750Y0017500D02*
Y0018000D01*
X0019450Y0018300D01*
X0010400D01*
X0010250Y0018150D01*
Y0016900D01*
X0010100Y0016750D01*
X0009400D01*
X0009250Y0016900D01*
Y0018200D01*
X0009150Y0018300D01*
X0008400D01*
X0008250Y0018150D01*
Y0016750D01*
X0008000Y0016500D01*
X0006750D01*
Y0017500D01*
G54D54*
G01X0020750D02*
Y0016700D01*
X0018800Y0014750D01*
X0015100D01*
X0014500Y0014150D01*
Y0012400D01*
X0014300Y0012200D01*
X0012200D01*
X0012000Y0012400D01*
Y0013000D01*
X0007500Y0005000D02*
X0007150Y0005350D01*
X0006500D01*
X0002600D02*
X0002250Y0005700D01*
X0001400D01*
X0000450Y0006650D01*
Y0011550D01*
X0001400Y0012500D01*
X0002000D01*
G54D10*
X0024500Y0003500D03*
X0021750D03*
Y0001500D03*
X0024500D03*
X0029000Y0003500D03*
X0026250D03*
Y0001500D03*
X0029000D03*
X0033500Y0003500D03*
X0030750D03*
Y0001500D03*
X0033500D03*
X0018500Y0003500D03*
X0015750D03*
Y0001500D03*
X0018500D03*
X0004000Y0002500D03*
X0006000D03*
X0005000Y0003500D03*
X0022250Y0013500D03*
Y0009500D03*
X0023500Y0013500D03*
Y0009500D03*
X0026250Y0013500D03*
X0027250D03*
X0033750Y0017250D03*
X0034750D03*
X0025500Y0006250D03*
Y0007250D03*
X0015500Y0006000D03*
Y0005000D03*
X0013500Y0006000D03*
Y0005000D03*
G54D11*
X0019000Y0004500D03*
Y0008500D03*
X0024250Y0005000D03*
X0028250D03*
X0029500D03*
X0033500D03*
X0031750Y0016500D03*
X0027750D03*
X0024750Y0009500D03*
Y0013500D03*
X0020500Y0009500D03*
Y0013500D03*
X0007500Y0005000D03*
X0011500D03*
X0017500Y0008500D03*
Y0004500D03*
X0026750Y0012250D03*
X0034750Y0015250D03*
G54D12*
X0026750Y0011250D03*
X0033750Y0015250D03*
G54D14*
X0002000Y0012500D03*
Y0011500D03*
Y0010500D03*
Y0009500D03*
Y0008500D03*
Y0007500D03*
G54D15*
X0022998Y0016380D03*
G54D16*
X0024750Y0015000D03*
Y0017756D03*
G54D17*
X0020050Y0004550D03*
Y0008500D03*
X0026750Y0006650D03*
Y0009450D03*
X0006500Y0005350D03*
X0002600D03*
X0017750Y0018800D03*
X0021600D03*
X0029250Y0018000D03*
X0014000Y0002000D03*
G54D18*
X0030250Y0018000D03*
X0014000Y0003000D03*
G54D19*
X0030750Y0015250D03*
X0029750D03*
X0008000Y0002500D03*
X0009000D03*
X0010000D03*
X0011000D03*
X0012000D03*
G54D21*
X0031721Y0012858D03*
Y0007150D03*
G54D22*
X0028375Y0007937D03*
Y0008410D03*
Y0008823D03*
Y0009237D03*
Y0009650D03*
Y0010103D03*
Y0010556D03*
Y0010989D03*
Y0011402D03*
Y0011874D03*
G54D23*
X0024033Y0006750D03*
G54D24*
X0021967Y0005844D03*
Y0006750D03*
Y0007655D03*
G54D25*
X0031750Y0015250D03*
G54D26*
X0015500Y0008000D03*
X0013500D03*
G54D52*
X0005750Y0017500D03*
X0006750D03*
X0007750D03*
X0008750D03*
X0009750D03*
X0010750D03*
X0011750D03*
X0012750D03*
X0013750D03*
X0014750D03*
X0015750D03*
X0016750D03*
X0017750D03*
X0018750D03*
X0019750D03*
X0020750D03*
G54D53*
X0006000Y0010000D03*
X0007000D03*
X0008000D03*
X0009000D03*
X0010000D03*
X0011000D03*
X0012000D03*
X0013000D03*
X0014000D03*
X0015000D03*
X0016000D03*
X0017000D03*
X0018000D03*
X0019000D03*
Y0013000D03*
X0018000D03*
X0017000D03*
X0016000D03*
X0015000D03*
X0014000D03*
X0013000D03*
X0012000D03*
X0011000D03*
X0010000D03*
X0009000D03*
X0008000D03*
X0007000D03*
X0006000D03*
G54D32*
%LPC*%
X0015500Y0008000D03*
X0013500D03*
X0031750Y0015250D03*
X0030750D03*
X0029750D03*
X0006000Y0010000D03*
X0007000D03*
X0008000D03*
X0009000D03*
X0010000D03*
X0011000D03*
X0012000D03*
X0013000D03*
X0014000D03*
X0015000D03*
X0016000D03*
X0017000D03*
X0018000D03*
X0019000D03*
Y0013000D03*
X0018000D03*
X0017000D03*
X0016000D03*
X0015000D03*
X0014000D03*
X0013000D03*
X0012000D03*
X0011000D03*
X0010000D03*
X0009000D03*
X0008000D03*
X0007000D03*
X0006000D03*
X0024500Y0003500D03*
X0021750D03*
Y0001500D03*
X0024500D03*
X0029000Y0003500D03*
X0026250D03*
Y0001500D03*
X0029000D03*
X0033500Y0003500D03*
X0030750D03*
Y0001500D03*
X0033500D03*
X0018500Y0003500D03*
X0015750D03*
Y0001500D03*
X0018500D03*
X0019000Y0004500D03*
Y0008500D03*
X0024250Y0005000D03*
X0028250D03*
X0029500D03*
X0033500D03*
X0031750Y0016500D03*
X0027750D03*
X0024750Y0009500D03*
Y0013500D03*
X0020500Y0009500D03*
Y0013500D03*
X0007500Y0005000D03*
X0011500D03*
X0017500Y0008500D03*
Y0004500D03*
X0004000Y0002500D03*
X0006000D03*
X0005000Y0003500D03*
X0002000Y0012500D03*
Y0011500D03*
Y0010500D03*
Y0009500D03*
Y0008500D03*
Y0007500D03*
X0030250Y0018000D03*
X0029250D03*
X0014000Y0003000D03*
Y0002000D03*
X0005750Y0017500D03*
X0006750D03*
X0007750D03*
X0008750D03*
X0009750D03*
X0010750D03*
X0011750D03*
X0012750D03*
X0013750D03*
X0014750D03*
X0015750D03*
X0016750D03*
X0017750D03*
X0018750D03*
X0019750D03*
X0020750D03*
X0024750Y0015000D03*
Y0017756D03*
X0022998Y0016380D03*
X0022250Y0013500D03*
Y0009500D03*
X0023500Y0013500D03*
Y0009500D03*
X0008000Y0002500D03*
X0009000D03*
X0010000D03*
X0011000D03*
X0012000D03*
X0026750Y0011250D03*
Y0012250D03*
X0026250Y0013500D03*
X0027250D03*
X0033750Y0017250D03*
X0034750D03*
X0033750Y0015250D03*
X0034750D03*
X0025500Y0006250D03*
Y0007250D03*
X0015500Y0006000D03*
Y0005000D03*
X0013500Y0006000D03*
Y0005000D03*
X0020050Y0004550D03*
Y0008500D03*
X0026750Y0006650D03*
Y0009450D03*
X0006500Y0005350D03*
X0002600D03*
X0017750Y0018800D03*
X0021600D03*
%LPD*%
M02*
