*
G04 Mass Parameters ***
*
G04 Image ***
*
%IND:\ATRIM ELECTRONICS(P)LTD\MODULES\81.HEX INJECTOR\HEX INJECTOR V1.1\DESIGN31.SSB*%
%ICAS*%
%MOIN*%
%IPPOS*%
%ASAXBY*%
G74*%FSLAN2X34Y34*%
*
G04 Aperture Definitions ***
*
%ADD10C,0.0787*%
%ADD11C,0.0827*%
%ADD12R,0.0827X0.0827*%
%ADD13C,0.0709*%
%ADD14O,0.1102X0.0590*%
%ADD15O,0.0984X0.2165*%
%ADD16O,0.1890X0.0984*%
%ADD17C,0.0748*%
%ADD18R,0.0748X0.0748*%
%ADD19O,0.0590X0.1102*%
%ADD20O,0.1102X0.0512*%
%ADD21R,0.0590X0.0787*%
%ADD22R,0.0787X0.0236*%
%ADD23R,0.0984X0.1220*%
%ADD24R,0.0984X0.0394*%
%ADD25R,0.0590X0.1102*%
%ADD26C,0.0790*%
%ADD27C,0.0079*%
%ADD28C,0.0200*%
%ADD29C,0.0300*%
%ADD30C,0.0400*%
%ADD31C,0.0120*%
%ADD32C,0.0140*%
%ADD33C,0.0866*%
%ADD34R,0.0866X0.0866*%
%ADD35O,0.1142X0.0630*%
%ADD36O,0.1024X0.2205*%
%ADD37O,0.1929X0.1024*%
%ADD38R,0.0787X0.0787*%
%ADD39O,0.0630X0.1142*%
%ADD40O,0.1142X0.0551*%
%ADD41R,0.0630X0.0827*%
%ADD42R,0.0827X0.0276*%
%ADD43R,0.1024X0.1260*%
%ADD44R,0.1024X0.0433*%
%ADD45R,0.0630X0.1142*%
%ADD46C,0.0830*%
%ADD47C,0.0100*%
%ADD48C,0.0020*%
%ADD49C,0.0080*%
%ADD50C,0.0551*%
%ADD51C,0.0060*%
%ADD52O,0.0590X0.0984*%
%ADD53O,0.0512X0.1102*%
%ADD54C,0.0180*%
%ADD55O,0.0630X0.1024*%
%ADD56O,0.0551X0.1142*%
*
G04 Plot Data ***
*
G54D27*
G01X-0000039Y-0000039D02*
Y0001023D01*
X-0000157D01*
Y-0000039D01*
X-0000511D01*
Y-0000157D01*
X-0000157D01*
Y-0000511D01*
X-0000039D01*
Y-0000157D01*
X0001023D01*
Y-0000039D01*
X-0000039D01*
X0035789D02*
X0034727D01*
Y-0000157D01*
X0035789D01*
Y-0000511D01*
X0035907D01*
Y-0000157D01*
X0036261D01*
Y-0000039D01*
X0035907D01*
Y0001023D01*
X0035789D01*
Y-0000039D01*
Y0020289D02*
Y0019227D01*
X0035907D01*
Y0020289D01*
X0036261D01*
Y0020407D01*
X0035907D01*
Y0020761D01*
X0035789D01*
Y0020407D01*
X0034727D01*
Y0020289D01*
X0035789D01*
X-0000039D02*
X0001023D01*
Y0020407D01*
X-0000039D01*
Y0020761D01*
X-0000157D01*
Y0020407D01*
X-0000511D01*
Y0020289D01*
X-0000157D01*
Y0019227D01*
X-0000039D01*
Y0020289D01*
X0023394Y0006750D02*
Y0008030D01*
X0022606D01*
Y0005469D01*
X0023394D01*
Y0007242D01*
X0028769Y0010575D02*
Y0012661D01*
X0036248D01*
Y0007347D01*
X0028769D01*
Y0010969D01*
X0028875Y0008737D02*
Y0011987D01*
X0033296D01*
Y0008487D01*
X0031475D01*
X0031275Y0008687D01*
X0030625D01*
Y0008487D01*
X0029975D01*
X0029725Y0008737D01*
X0028875D01*
G54D51*
G01X0022894Y0004878D02*
X0022822Y0004805D01*
X0022677D01*
X0022605Y0004878D01*
Y0004950D01*
X0022749Y0005094D01*
X0022605Y0005239D01*
X0022894D01*
X0023050D02*
Y0004878D01*
X0023086Y0004805D01*
X0023303D01*
X0023339Y0004878D01*
Y0005239D01*
X0032355Y0006718D02*
X0032644D01*
X0032355Y0007007D01*
Y0007079D01*
X0032391Y0007151D01*
X0032608D01*
X0032644Y0007079D01*
X0032800Y0007151D02*
Y0006790D01*
X0032836Y0006718D01*
X0033053D01*
X0033089Y0006790D01*
Y0007151D01*
G54D32*
%LPC*%
X0015500Y0008000D03*
X0013500D03*
X0031750Y0015250D03*
X0030750D03*
X0029750D03*
X0006000Y0010000D03*
X0007000D03*
X0008000D03*
X0009000D03*
X0010000D03*
X0011000D03*
X0012000D03*
X0013000D03*
X0014000D03*
X0015000D03*
X0016000D03*
X0017000D03*
X0018000D03*
X0019000D03*
Y0013000D03*
X0018000D03*
X0017000D03*
X0016000D03*
X0015000D03*
X0014000D03*
X0013000D03*
X0012000D03*
X0011000D03*
X0010000D03*
X0009000D03*
X0008000D03*
X0007000D03*
X0006000D03*
X0024500Y0003500D03*
X0021750D03*
Y0001500D03*
X0024500D03*
X0029000Y0003500D03*
X0026250D03*
Y0001500D03*
X0029000D03*
X0033500Y0003500D03*
X0030750D03*
Y0001500D03*
X0033500D03*
X0018500Y0003500D03*
X0015750D03*
Y0001500D03*
X0018500D03*
X0019000Y0004500D03*
Y0008500D03*
X0024250Y0005000D03*
X0028250D03*
X0029500D03*
X0033500D03*
X0031750Y0016500D03*
X0027750D03*
X0024750Y0009500D03*
Y0013500D03*
X0020500Y0009500D03*
Y0013500D03*
X0007500Y0005000D03*
X0011500D03*
X0017500Y0008500D03*
Y0004500D03*
X0004000Y0002500D03*
X0006000D03*
X0005000Y0003500D03*
X0002000Y0012500D03*
Y0011500D03*
Y0010500D03*
Y0009500D03*
Y0008500D03*
Y0007500D03*
X0030250Y0018000D03*
X0029250D03*
X0014000Y0003000D03*
Y0002000D03*
X0005750Y0017500D03*
X0006750D03*
X0007750D03*
X0008750D03*
X0009750D03*
X0010750D03*
X0011750D03*
X0012750D03*
X0013750D03*
X0014750D03*
X0015750D03*
X0016750D03*
X0017750D03*
X0018750D03*
X0019750D03*
X0020750D03*
X0024750Y0015000D03*
Y0017756D03*
X0022998Y0016380D03*
X0022250Y0013500D03*
Y0009500D03*
X0023500Y0013500D03*
Y0009500D03*
X0008000Y0002500D03*
X0009000D03*
X0010000D03*
X0011000D03*
X0012000D03*
X0026750Y0011250D03*
Y0012250D03*
X0026250Y0013500D03*
X0027250D03*
X0033750Y0017250D03*
X0034750D03*
X0033750Y0015250D03*
X0034750D03*
X0025500Y0006250D03*
Y0007250D03*
X0015500Y0006000D03*
Y0005000D03*
X0013500Y0006000D03*
Y0005000D03*
X0020050Y0004550D03*
Y0008500D03*
X0026750Y0006650D03*
Y0009450D03*
X0006500Y0005350D03*
X0002600D03*
X0017750Y0018800D03*
X0021600D03*
%LPD*%
M02*
