%
T1C0.035F200S100
X002000Y007500
X002000Y008500
X002000Y009500
X002000Y010500
X002000Y011500
X002000Y012500
X002600Y005350
X004000Y002500
X005000Y003500
X005750Y017500
X006000Y002500
X006000Y010000
X006000Y013000
X006500Y005350
X006750Y017500
X007000Y010000
X007000Y013000
X007750Y017500
X008000Y002500
X008000Y010000
X008000Y013000
X008750Y017500
X009000Y002500
X009000Y010000
X009000Y013000
X009750Y017500
X010000Y002500
X010000Y010000
X010000Y013000
X010750Y017500
X011000Y002500
X011000Y010000
X011000Y013000
X011750Y017500
X012000Y002500
X012000Y010000
X012000Y013000
X012750Y017500
X013000Y010000
X013000Y013000
X013500Y005000
X013500Y006000
X013500Y008000
X013750Y017500
X014000Y002000
X014000Y003000
X014000Y010000
X014000Y013000
X014750Y017500
X015000Y010000
X015000Y013000
X015500Y005000
X015500Y006000
X015500Y008000
X015750Y017500
X016000Y010000
X016000Y013000
X016750Y017500
X017000Y010000
X017000Y013000
X017750Y017500
X017750Y018800
X018000Y010000
X018000Y013000
X018750Y017500
X019000Y010000
X019000Y013000
X019750Y017500
X020050Y004550
X020050Y008500
X020750Y017500
X021600Y018800
X022998Y016380
X024750Y015000
X024750Y017756
X025500Y006250
X025500Y007250
X026250Y013500
X026750Y006650
X026750Y009450
X027250Y013500
X029250Y018000
X030250Y018000
X033750Y017250
X034750Y017250
T2C0.039F200S100
X007500Y005000
X011500Y005000
X015750Y001500
X015750Y003500
X017500Y004500
X017500Y008500
X018500Y001500
X018500Y003500
X019000Y004500
X019000Y008500
X020500Y009500
X020500Y013500
X021750Y001500
X021750Y003500
X022250Y009500
X023500Y009500
X023500Y013500
X022250Y013500
X024250Y005000
X024500Y001500
X024500Y003500
X024750Y009500
X024750Y013500
X026250Y001500
X026250Y003500
X026750Y011250
X026750Y012250
X027750Y016500
X028250Y005000
X029000Y001500
X029000Y003500
X029500Y005000
X029750Y015250
X030750Y001500
X030750Y003500
X030750Y015250
X031750Y015250
X031750Y016500
X033500Y001500
X033500Y003500
X033500Y005000
X033750Y015250
X034750Y015250
M30
