*
G04 Mass Parameters ***
*
G04 Image ***
*
%INC:\USERS\ATRIM_PCB\DESKTOP\HEX INJECTOR V1.2\DESIGN31.DRD*%
%ICAS*%
%MOIN*%
%IPPOS*%
%ASAXBY*%
G74*%FSLAN2X34Y34*%
*
G04 Aperture Definitions ***
*
%ADD10C,0.0787*%
%ADD11C,0.0827*%
%ADD12R,0.0827X0.0827*%
%ADD13C,0.0709*%
%ADD14O,0.1102X0.0590*%
%ADD15O,0.0984X0.2165*%
%ADD16O,0.1890X0.0984*%
%ADD17C,0.0748*%
%ADD18R,0.0748X0.0748*%
%ADD19O,0.0590X0.1102*%
%ADD20O,0.1102X0.0512*%
%ADD21R,0.0590X0.0787*%
%ADD22R,0.0787X0.0236*%
%ADD23R,0.0984X0.1220*%
%ADD24R,0.0984X0.0394*%
%ADD25R,0.0590X0.1102*%
%ADD26C,0.0790*%
%ADD27C,0.0079*%
%ADD28C,0.0200*%
%ADD29C,0.0300*%
%ADD30C,0.0400*%
%ADD31C,0.0120*%
%ADD32C,0.0140*%
%ADD33C,0.0866*%
%ADD34R,0.0866X0.0866*%
%ADD35O,0.1142X0.0630*%
%ADD36O,0.1024X0.2205*%
%ADD37O,0.1929X0.1024*%
%ADD38R,0.0787X0.0787*%
%ADD39O,0.0630X0.1142*%
%ADD40O,0.1142X0.0551*%
%ADD41R,0.0630X0.0827*%
%ADD42R,0.0827X0.0276*%
%ADD43R,0.1024X0.1260*%
%ADD44R,0.1024X0.0433*%
%ADD45R,0.0630X0.1142*%
%ADD46C,0.0830*%
%ADD47C,0.0100*%
%ADD48C,0.0020*%
%ADD49C,0.0080*%
%ADD50C,0.0551*%
%ADD51C,0.0060*%
%ADD52O,0.0590X0.0984*%
%ADD53O,0.0512X0.1102*%
%ADD54C,0.0180*%
%ADD55O,0.0630X0.1024*%
%ADD56O,0.0551X0.1142*%
%ADD57O,0.0984X0.0512*%
%ADD58R,0.0984X0.0512*%
%ADD59O,0.1023X0.0551*%
%ADD60R,0.1023X0.0551*%
%ADD61C,0.0010*%
%ADD62C,0.1260*%
%ADD63C,0.1378*%
%ADD64C,0.0098*%
*
G04 Plot Data ***
*
G54D27*
G01X0059000Y0023000D02*
X0000000D01*
Y0000000D01*
X0059000D01*
Y0023000D01*
G54D47*
G01X0024708Y-0016083D02*
X0024375D01*
X0024542D02*
Y-0015083D01*
X0024375Y-0015250D01*
X0023425Y-0016083D02*
X0023925Y-0015083D01*
X0023258D01*
X0022975Y-0016083D02*
X0022642D01*
X0022808D02*
Y-0015083D01*
X0022642Y-0015250D01*
X0012312Y-0016083D02*
X0011729D01*
Y-0015083D01*
X0011446Y-0015750D02*
X0010779D01*
X0011446Y-0016083D02*
Y-0015583D01*
X0011196Y-0015083D01*
X0011029D01*
X0010779Y-0015583D01*
Y-0016083D01*
X0010162D02*
Y-0015083D01*
X0010496D02*
X0009829D01*
X0008962Y-0016083D02*
X0008879Y-0015917D01*
Y-0015250D01*
X0008962Y-0015083D01*
X0009462D01*
X0009546Y-0015250D01*
Y-0015917D01*
X0009462Y-0016083D01*
X0008962D01*
X0008262D02*
Y-0015083D01*
X0008596D02*
X0007929D01*
X0024708Y-0014000D02*
X0024264D01*
X0024486Y-0013556D01*
X0024597D01*
Y-0014222D01*
X0011036Y-0013889D02*
X0011092Y-0013778D01*
Y-0013667D01*
X0011036Y-0013556D01*
X0010703D01*
X0010647Y-0013667D01*
Y-0013778D01*
X0010703Y-0013889D01*
X0011036D01*
X0011092Y-0014000D01*
Y-0014111D01*
X0011036Y-0014222D01*
X0010703D01*
X0010647Y-0014111D01*
Y-0014000D01*
X0010703Y-0013889D01*
X0010392Y-0014222D02*
X0010169D01*
X0010281D02*
Y-0013556D01*
X0010169Y-0013667D01*
X0009803Y-0014222D02*
X0009581D01*
X0009692D02*
Y-0013556D01*
X0009581Y-0013667D01*
X0009103Y-0014222D02*
X0009214D01*
Y-0014111D01*
X0009103D01*
Y-0014222D01*
X0008458D02*
X0008347Y-0014111D01*
X0008292Y-0014000D01*
Y-0013778D01*
X0008347Y-0013667D01*
X0008458Y-0013556D01*
X0008570D01*
X0008569D02*
X0008681Y-0013667D01*
X0008736Y-0013778D01*
Y-0014000D01*
X0008681Y-0014111D01*
X0008570Y-0014222D01*
X0008569D02*
X0008458D01*
X0024264Y-0012611D02*
X0024375Y-0012722D01*
X0024597D01*
X0024708Y-0012611D01*
Y-0012500D01*
X0024486Y-0012278D01*
X0024708Y-0012056D01*
X0024264D01*
X0024008Y-0012500D02*
X0023564D01*
X0023786Y-0012056D01*
X0023897D01*
Y-0012722D01*
X0011036Y-0012389D02*
X0010703D01*
X0010647Y-0012278D01*
Y-0012167D01*
X0010703Y-0012056D01*
X0011036D01*
X0011092Y-0012167D01*
Y-0012278D01*
X0010869Y-0012722D01*
X0009947Y-0012611D02*
X0010058Y-0012722D01*
X0010280D01*
X0010392Y-0012611D01*
Y-0012500D01*
X0010169Y-0012278D01*
X0010392Y-0012056D01*
X0009947D01*
X0009414Y-0012722D02*
X0009303Y-0012611D01*
X0009247Y-0012500D01*
Y-0012278D01*
X0009303Y-0012167D01*
X0009414Y-0012056D01*
X0009525D01*
X0009636Y-0012167D01*
X0009692Y-0012278D01*
Y-0012500D01*
X0009636Y-0012611D01*
X0009525Y-0012722D01*
X0009414D01*
X0008880D02*
X0008992D01*
Y-0012611D01*
X0008881D01*
X0008880D02*
X0008881Y-0012722D01*
X0008236D02*
X0008125Y-0012611D01*
X0008069Y-0012500D01*
Y-0012278D01*
X0008125Y-0012167D01*
X0008236Y-0012056D01*
X0008347D01*
X0008458Y-0012167D01*
X0008514Y-0012278D01*
Y-0012500D01*
X0008458Y-0012611D01*
X0008347Y-0012722D01*
X0008236D01*
X0024708Y-0011000D02*
X0024264D01*
X0024486Y-0010556D01*
X0024597D01*
Y-0011222D01*
X0024008D02*
X0023564D01*
X0024008Y-0010778D01*
Y-0010667D01*
X0023953Y-0010556D01*
X0023619D01*
X0023564Y-0010667D01*
X0023308Y-0011222D02*
X0023086D01*
X0023197D02*
Y-0010556D01*
X0023086Y-0010667D01*
X0010647Y-0011111D02*
X0010703Y-0011222D01*
X0011036D01*
X0011092Y-0011111D01*
Y-0010889D01*
X0010980Y-0010778D01*
X0010647D01*
Y-0010556D01*
X0011092D01*
X0009947Y-0011111D02*
X0010058Y-0011222D01*
X0010280D01*
X0010392Y-0011111D01*
Y-0011000D01*
X0010169Y-0010778D01*
X0010392Y-0010556D01*
X0009947D01*
X0009414Y-0011222D02*
X0009303Y-0011111D01*
X0009247Y-0011000D01*
Y-0010778D01*
X0009303Y-0010667D01*
X0009414Y-0010556D01*
X0009525D01*
X0009636Y-0010667D01*
X0009692Y-0010778D01*
Y-0011000D01*
X0009636Y-0011111D01*
X0009525Y-0011222D01*
X0009414D01*
X0008880D02*
X0008992D01*
Y-0011111D01*
X0008881D01*
X0008880D02*
X0008881Y-0011222D01*
X0008236D02*
X0008125Y-0011111D01*
X0008069Y-0011000D01*
Y-0010778D01*
X0008125Y-0010667D01*
X0008236Y-0010556D01*
X0008347D01*
X0008458Y-0010667D01*
X0008514Y-0010778D01*
Y-0011000D01*
X0008458Y-0011111D01*
X0008347Y-0011222D01*
X0008236D01*
X0033112Y-0009083D02*
X0032612D01*
X0033279Y-0009583D02*
X0032612D01*
Y-0008583D01*
X0033279D01*
X0031996Y-0009583D02*
Y-0008583D01*
X0032329D02*
X0031662D01*
X0030796Y-0009583D02*
X0030712Y-0009417D01*
Y-0008750D01*
X0030796Y-0008583D01*
X0031296D01*
X0031379Y-0008750D01*
Y-0009417D01*
X0031296Y-0009583D01*
X0030796D01*
X0030429Y-0008583D02*
Y-0009583D01*
X0030262Y-0009417D01*
X0029929Y-0008750D01*
X0029762Y-0008583D01*
Y-0009583D01*
X0023925D02*
Y-0009083D01*
X0024258Y-0008583D02*
X0024008Y-0009083D01*
X0023842D01*
X0023592Y-0008583D01*
X0022975Y-0009583D02*
Y-0008583D01*
X0023308D02*
X0022642D01*
X0022025Y-0009250D02*
X0022358Y-0009583D01*
X0021692Y-0009417D02*
X0021775Y-0009583D01*
X0022108D01*
X0022192Y-0009417D01*
X0022358Y-0009250D01*
Y-0008750D01*
X0022275Y-0008583D01*
X0021775D01*
X0021692Y-0008750D01*
Y-0009417D01*
X0017408Y-0009583D02*
X0016825D01*
Y-0008583D01*
X0015958Y-0009583D02*
X0015875Y-0009417D01*
Y-0008750D01*
X0015958Y-0008583D01*
X0016458D01*
X0016542Y-0008750D01*
Y-0009417D01*
X0016458Y-0009583D01*
X0015958D01*
X0015258D02*
Y-0008583D01*
X0015592D02*
X0014925D01*
X0009587Y-0009583D02*
Y-0008583D01*
X0009421Y-0008750D01*
X0009254Y-0009083D01*
X0009087Y-0008750D01*
X0008921Y-0008583D01*
Y-0009583D01*
X0008637Y-0009250D02*
X0007971D01*
X0008637Y-0009583D02*
Y-0009083D01*
X0008387Y-0008583D01*
X0008221D01*
X0007971Y-0009083D01*
Y-0009583D01*
X0007687D02*
X0007354D01*
X0007521D02*
Y-0008583D01*
X0007687D02*
X0007354D01*
X0006321Y-0009583D02*
Y-0008583D01*
X0006237Y-0009583D02*
X0006737D01*
X0006904Y-0009250D01*
Y-0008917D01*
X0006737Y-0008583D01*
X0006237D01*
X0003150Y-0009583D02*
Y-0008583D01*
X0002983Y-0008750D01*
X0002817Y-0009083D01*
X0002650Y-0008750D01*
X0002483Y-0008583D01*
Y-0009583D01*
X0001867D02*
Y-0009083D01*
X0002200Y-0008583D02*
X0001950Y-0009083D01*
X0001783D01*
X0001533Y-0008583D01*
X0001250Y-0008750D02*
X0001167Y-0008583D01*
X0000667D01*
X0000583Y-0008750D01*
Y-0008917D01*
X0000667Y-0009083D01*
X0001167D01*
X0001250Y-0009250D01*
Y-0009417D01*
X0001167Y-0009583D01*
X0000667D01*
X0000583Y-0009417D01*
X0023437Y-0007583D02*
Y-0006583D01*
X0023771D02*
X0023104D01*
X0022571Y-0007083D02*
X0022821Y-0007583D01*
X0022154Y-0007083D02*
X0022654D01*
X0022821Y-0006917D01*
Y-0006750D01*
X0022654Y-0006583D01*
X0022154D01*
Y-0007583D01*
X0021871Y-0007250D02*
X0021204D01*
X0021871Y-0007583D02*
Y-0007083D01*
X0021621Y-0006583D01*
X0021454D01*
X0021204Y-0007083D01*
Y-0007583D01*
X0020921Y-0007083D02*
X0020254D01*
X0020921Y-0007583D02*
Y-0006583D01*
X0020254Y-0007583D02*
Y-0006583D01*
X0019971Y-0007417D02*
X0019887Y-0007583D01*
X0019387D01*
X0019304Y-0007417D01*
Y-0006750D01*
X0019387Y-0006583D01*
X0019887D01*
X0019971Y-0006750D01*
X0017696Y-0007583D02*
X0017112D01*
Y-0006583D01*
X0016829Y-0007583D02*
X0016246D01*
Y-0006583D01*
X0015962Y-0007583D02*
X0015629D01*
X0015796D02*
Y-0006583D01*
X0015962D02*
X0015629D01*
X0014929Y-0007083D02*
X0015179Y-0007583D01*
X0014512Y-0007083D02*
X0015012D01*
X0015179Y-0006917D01*
Y-0006750D01*
X0015012Y-0006583D01*
X0014513D01*
X0014512D02*
X0014513Y-0007583D01*
X0013646D02*
Y-0006583D01*
X0013562Y-0007583D02*
X0014062D01*
X0014229Y-0007250D01*
Y-0006917D01*
X0014062Y-0006583D01*
X0013563D01*
X0020250Y0006750D02*
X0019750Y0006250D01*
X0020250D02*
X0019750Y0006750D01*
X0020250Y0010750D02*
X0019750Y0010250D01*
X0020250D02*
X0019750Y0010750D01*
X0027000Y0008000D02*
X0026500Y0007500D01*
X0027000D02*
X0026500Y0008000D01*
X0027000Y0011700D02*
X0026500Y0011200D01*
X0027000D02*
X0026500Y0011700D01*
X0019850Y0003500D02*
X0019350Y0003000D01*
X0019850D02*
X0019350Y0003500D01*
X0019850Y0005500D02*
X0019350Y0005000D01*
X0019850D02*
X0019350Y0005500D01*
X0027500Y0016850D02*
X0027000Y0016350D01*
X0027500D02*
X0027000Y0016850D01*
X0023750D02*
X0023250Y0016350D01*
X0023750D02*
X0023250Y0016850D01*
X0014000Y0002900D02*
X0013500Y0002400D01*
X0014000D02*
X0013500Y0002900D01*
X0010250D02*
X0009750Y0002400D01*
X0010250D02*
X0009750Y0002900D01*
X0006750Y0007600D02*
X0006250Y0007100D01*
X0006750D02*
X0006250Y0007600D01*
X0002850D02*
X0002350Y0007100D01*
X0002850D02*
X0002350Y0007600D01*
X0031000Y0006000D02*
X0030500Y0005500D01*
X0031000D02*
X0030500Y0006000D01*
X0027850D02*
X0027350Y0005500D01*
X0027850D02*
X0027350Y0006000D01*
X0018000Y0021050D02*
X0017500Y0020550D01*
X0018000D02*
X0017500Y0021050D01*
X0021850D02*
X0021350Y0020550D01*
X0021850D02*
X0021350Y0021050D01*
X0001825Y-0013750D02*
X0001575Y-0014000D01*
X0002075D02*
X0001825Y-0013750D01*
Y-0014250D02*
X0002075Y-0014000D01*
X0001575D02*
X0001825Y-0014250D01*
X0002075Y-0012500D02*
X0001575D01*
X0001825Y-0012250D02*
Y-0012750D01*
X0002075Y-0010750D02*
X0001575Y-0011250D01*
X0002075D02*
X0001575Y-0010750D01*
X0037300Y-0016800D02*
X-0000050D01*
X0037250Y-0016750D02*
X0000000D01*
X0037250Y-0014750D02*
X0000000D01*
X0037250Y-0013250D02*
X0000000D01*
X0037250Y-0011750D02*
X0000000D01*
X0037250Y-0010250D02*
X0000000D01*
X0037250Y-0010200D02*
X0000000D01*
X0037250Y-0008250D02*
X0000000D01*
X0037250Y-0008200D02*
X0000000D01*
X0037250Y-0006250D02*
X0000000D01*
X0037300Y-0006200D02*
X-0000050D01*
X0037300Y-0016750D02*
Y-0006250D01*
X0037250Y-0016750D02*
Y-0006250D01*
X0025708Y-0016750D02*
Y-0008250D01*
X0020158Y-0016750D02*
Y-0008250D01*
X0012092Y-0014750D02*
Y-0008250D01*
X0003700Y-0014750D02*
Y-0008250D01*
X0003650Y-0014750D02*
Y-0008250D01*
X-0000050Y-0016750D02*
Y-0006250D01*
X0000000Y-0016750D02*
Y-0006250D01*
X0056000Y0007250D02*
X0055750Y0007000D01*
X0056250D02*
X0056000Y0007250D01*
Y0006750D02*
X0056250Y0007000D01*
X0055750D02*
X0056000Y0006750D01*
Y0016250D02*
X0055750Y0016000D01*
X0056250D02*
X0056000Y0016250D01*
Y0015750D02*
X0056250Y0016000D01*
X0055750D02*
X0056000Y0015750D01*
X0001750Y0002000D02*
X0001500Y0001750D01*
X0002000D02*
X0001750Y0002000D01*
Y0001500D02*
X0002000Y0001750D01*
X0001500D02*
X0001750Y0001500D01*
Y0021500D02*
X0001500Y0021250D01*
X0002000D02*
X0001750Y0021500D01*
Y0021000D02*
X0002000Y0021250D01*
X0001500D02*
X0001750Y0021000D01*
X0015750Y0010250D02*
X0015250Y0009750D01*
X0015750D02*
X0015250Y0010250D01*
X0013750D02*
X0013250Y0009750D01*
X0013750D02*
X0013250Y0010250D01*
X0032000Y0017250D02*
X0031500D01*
X0031750Y0017500D02*
Y0017000D01*
X0031000Y0017250D02*
X0030500D01*
X0030750Y0017500D02*
Y0017000D01*
X0030000Y0017250D02*
X0029500D01*
X0029750Y0017500D02*
Y0017000D01*
X0006250Y0012250D02*
X0005750Y0011750D01*
X0006250D02*
X0005750Y0012250D01*
X0007250D02*
X0006750Y0011750D01*
X0007250D02*
X0006750Y0012250D01*
X0008250D02*
X0007750Y0011750D01*
X0008250D02*
X0007750Y0012250D01*
X0009250D02*
X0008750Y0011750D01*
X0009250D02*
X0008750Y0012250D01*
X0010250D02*
X0009750Y0011750D01*
X0010250D02*
X0009750Y0012250D01*
X0011250D02*
X0010750Y0011750D01*
X0011250D02*
X0010750Y0012250D01*
X0012250D02*
X0011750Y0011750D01*
X0012250D02*
X0011750Y0012250D01*
X0013250D02*
X0012750Y0011750D01*
X0013250D02*
X0012750Y0012250D01*
X0014250D02*
X0013750Y0011750D01*
X0014250D02*
X0013750Y0012250D01*
X0015250D02*
X0014750Y0011750D01*
X0015250D02*
X0014750Y0012250D01*
X0016250D02*
X0015750Y0011750D01*
X0016250D02*
X0015750Y0012250D01*
X0017250D02*
X0016750Y0011750D01*
X0017250D02*
X0016750Y0012250D01*
X0018250D02*
X0017750Y0011750D01*
X0018250D02*
X0017750Y0012250D01*
X0019250D02*
X0018750Y0011750D01*
X0019250D02*
X0018750Y0012250D01*
X0019250Y0015250D02*
X0018750Y0014750D01*
X0019250D02*
X0018750Y0015250D01*
X0018250D02*
X0017750Y0014750D01*
X0018250D02*
X0017750Y0015250D01*
X0017250D02*
X0016750Y0014750D01*
X0017250D02*
X0016750Y0015250D01*
X0016250D02*
X0015750Y0014750D01*
X0016250D02*
X0015750Y0015250D01*
X0015250D02*
X0014750Y0014750D01*
X0015250D02*
X0014750Y0015250D01*
X0014250D02*
X0013750Y0014750D01*
X0014250D02*
X0013750Y0015250D01*
X0013250D02*
X0012750Y0014750D01*
X0013250D02*
X0012750Y0015250D01*
X0012250D02*
X0011750Y0014750D01*
X0012250D02*
X0011750Y0015250D01*
X0011250D02*
X0010750Y0014750D01*
X0011250D02*
X0010750Y0015250D01*
X0010250D02*
X0009750Y0014750D01*
X0010250D02*
X0009750Y0015250D01*
X0009250D02*
X0008750Y0014750D01*
X0009250D02*
X0008750Y0015250D01*
X0008250D02*
X0007750Y0014750D01*
X0008250D02*
X0007750Y0015250D01*
X0007250D02*
X0006750Y0014750D01*
X0007250D02*
X0006750Y0015250D01*
X0006250D02*
X0005750Y0014750D01*
X0006250D02*
X0005750Y0015250D01*
X0024750Y0004000D02*
X0024250D01*
X0024500Y0004250D02*
Y0003750D01*
X0022000Y0004000D02*
X0021500D01*
X0021750Y0004250D02*
Y0003750D01*
X0022000Y0002000D02*
X0021500D01*
X0021750Y0002250D02*
Y0001750D01*
X0024750Y0002000D02*
X0024250D01*
X0024500Y0002250D02*
Y0001750D01*
X0029250Y0004000D02*
X0028750D01*
X0029000Y0004250D02*
Y0003750D01*
X0026500Y0004000D02*
X0026000D01*
X0026250Y0004250D02*
Y0003750D01*
X0026500Y0002000D02*
X0026000D01*
X0026250Y0002250D02*
Y0001750D01*
X0029250Y0002000D02*
X0028750D01*
X0029000Y0002250D02*
Y0001750D01*
X0033750Y0004000D02*
X0033250D01*
X0033500Y0004250D02*
Y0003750D01*
X0031000Y0004000D02*
X0030500D01*
X0030750Y0004250D02*
Y0003750D01*
X0031000Y0002000D02*
X0030500D01*
X0030750Y0002250D02*
Y0001750D01*
X0033750Y0002000D02*
X0033250D01*
X0033500Y0002250D02*
Y0001750D01*
X0016000Y0003250D02*
X0015500D01*
X0015750Y0003500D02*
Y0003000D01*
X0018750Y0003250D02*
X0018250D01*
X0018500Y0003500D02*
Y0003000D01*
X0018750Y0005250D02*
X0018250D01*
X0018500Y0005500D02*
Y0005000D01*
X0016000Y0005250D02*
X0015500D01*
X0015750Y0005500D02*
Y0005000D01*
X0019250Y0006500D02*
X0018750D01*
X0019000Y0006750D02*
Y0006250D01*
X0019250Y0010500D02*
X0018750D01*
X0019000Y0010750D02*
Y0010250D01*
X0024750Y0009250D02*
X0024250D01*
X0024500Y0009500D02*
Y0009000D01*
X0024750Y0005250D02*
X0024250D01*
X0024500Y0005500D02*
Y0005000D01*
X0033750Y0007000D02*
X0033250D01*
X0033500Y0007250D02*
Y0006750D01*
X0029750Y0007000D02*
X0029250D01*
X0029500Y0007250D02*
Y0006750D01*
X0032000Y0018500D02*
X0031500D01*
X0031750Y0018750D02*
Y0018250D01*
X0028000Y0018500D02*
X0027500D01*
X0027750Y0018750D02*
Y0018250D01*
X0025000Y0011500D02*
X0024500D01*
X0024750Y0011750D02*
Y0011250D01*
X0025000Y0015500D02*
X0024500D01*
X0024750Y0015750D02*
Y0015250D01*
X0020750Y0011500D02*
X0020250D01*
X0020500Y0011750D02*
Y0011250D01*
X0020750Y0015500D02*
X0020250D01*
X0020500Y0015750D02*
Y0015250D01*
X0007750Y0007000D02*
X0007250D01*
X0007500Y0007250D02*
Y0006750D01*
X0011750Y0007000D02*
X0011250D01*
X0011500Y0007250D02*
Y0006750D01*
X0017750Y0010500D02*
X0017250D01*
X0017500Y0010750D02*
Y0010250D01*
X0017750Y0006500D02*
X0017250D01*
X0017500Y0006750D02*
Y0006250D01*
X0004000Y0004750D02*
X0003500Y0004250D01*
X0004000D02*
X0003500Y0004750D01*
X0006000D02*
X0005500Y0004250D01*
X0006000D02*
X0005500Y0004750D01*
X0005000Y0005750D02*
X0004500Y0005250D01*
X0005000D02*
X0004500Y0005750D01*
X0002250Y0014750D02*
X0001750Y0014250D01*
X0002250D02*
X0001750Y0014750D01*
X0002250Y0013750D02*
X0001750Y0013250D01*
X0002250D02*
X0001750Y0013750D01*
X0002250Y0012750D02*
X0001750Y0012250D01*
X0002250D02*
X0001750Y0012750D01*
X0002250Y0011750D02*
X0001750Y0011250D01*
X0002250D02*
X0001750Y0011750D01*
X0002250Y0010750D02*
X0001750Y0010250D01*
X0002250D02*
X0001750Y0010750D01*
X0002250Y0009750D02*
X0001750Y0009250D01*
X0002250D02*
X0001750Y0009750D01*
X0030500Y0020250D02*
X0030000Y0019750D01*
X0030500D02*
X0030000Y0020250D01*
X0029500D02*
X0029000Y0019750D01*
X0029500D02*
X0029000Y0020250D01*
X0014000Y0005250D02*
X0013500Y0004750D01*
X0014000D02*
X0013500Y0005250D01*
X0014000Y0004250D02*
X0013500Y0003750D01*
X0014000D02*
X0013500Y0004250D01*
X0006000Y0019750D02*
X0005500Y0019250D01*
X0006000D02*
X0005500Y0019750D01*
X0007000D02*
X0006500Y0019250D01*
X0007000D02*
X0006500Y0019750D01*
X0008000D02*
X0007500Y0019250D01*
X0008000D02*
X0007500Y0019750D01*
X0009000D02*
X0008500Y0019250D01*
X0009000D02*
X0008500Y0019750D01*
X0010000D02*
X0009500Y0019250D01*
X0010000D02*
X0009500Y0019750D01*
X0011000D02*
X0010500Y0019250D01*
X0011000D02*
X0010500Y0019750D01*
X0012000D02*
X0011500Y0019250D01*
X0012000D02*
X0011500Y0019750D01*
X0013000D02*
X0012500Y0019250D01*
X0013000D02*
X0012500Y0019750D01*
X0014000D02*
X0013500Y0019250D01*
X0014000D02*
X0013500Y0019750D01*
X0015000D02*
X0014500Y0019250D01*
X0015000D02*
X0014500Y0019750D01*
X0016000D02*
X0015500Y0019250D01*
X0016000D02*
X0015500Y0019750D01*
X0017000D02*
X0016500Y0019250D01*
X0017000D02*
X0016500Y0019750D01*
X0018000D02*
X0017500Y0019250D01*
X0018000D02*
X0017500Y0019750D01*
X0019000D02*
X0018500Y0019250D01*
X0019000D02*
X0018500Y0019750D01*
X0020000D02*
X0019500Y0019250D01*
X0020000D02*
X0019500Y0019750D01*
X0021000D02*
X0020500Y0019250D01*
X0021000D02*
X0020500Y0019750D01*
X0025000Y0018250D02*
X0024500Y0017750D01*
X0025000D02*
X0024500Y0018250D01*
X0025000Y0021006D02*
X0024500Y0020506D01*
X0025000D02*
X0024500Y0021006D01*
X0023248Y0019630D02*
X0022748Y0019130D01*
X0023248D02*
X0022748Y0019630D01*
X0040000Y0021250D02*
X0039500Y0020750D01*
X0040000D02*
X0039500Y0021250D01*
X0041000D02*
X0040500Y0020750D01*
X0041000D02*
X0040500Y0021250D01*
X0042000D02*
X0041500Y0020750D01*
X0042000D02*
X0041500Y0021250D01*
X0043000D02*
X0042500Y0020750D01*
X0043000D02*
X0042500Y0021250D01*
X0044000D02*
X0043500Y0020750D01*
X0044000D02*
X0043500Y0021250D01*
X0045000D02*
X0044500Y0020750D01*
X0045000D02*
X0044500Y0021250D01*
X0047000D02*
X0046500Y0020750D01*
X0047000D02*
X0046500Y0021250D01*
X0048000D02*
X0047500Y0020750D01*
X0048000D02*
X0047500Y0021250D01*
X0049000D02*
X0048500Y0020750D01*
X0049000D02*
X0048500Y0021250D01*
X0050000D02*
X0049500Y0020750D01*
X0050000D02*
X0049500Y0021250D01*
X0051000D02*
X0050500Y0020750D01*
X0051000D02*
X0050500Y0021250D01*
X0052000D02*
X0051500Y0020750D01*
X0052000D02*
X0051500Y0021250D01*
X0053500D02*
X0053000Y0020750D01*
X0053500D02*
X0053000Y0021250D01*
X0054500D02*
X0054000Y0020750D01*
X0054500D02*
X0054000Y0021250D01*
X0055500D02*
X0055000Y0020750D01*
X0055500D02*
X0055000Y0021250D01*
X0057000D02*
X0056500Y0020750D01*
X0057000D02*
X0056500Y0021250D01*
X0058000D02*
X0057500Y0020750D01*
X0058000D02*
X0057500Y0021250D01*
X0047000Y0002250D02*
X0046500Y0001750D01*
X0047000D02*
X0046500Y0002250D01*
X0046000D02*
X0045500Y0001750D01*
X0046000D02*
X0045500Y0002250D01*
X0045000D02*
X0044500Y0001750D01*
X0045000D02*
X0044500Y0002250D01*
X0044000D02*
X0043500Y0001750D01*
X0044000D02*
X0043500Y0002250D01*
X0043000D02*
X0042500Y0001750D01*
X0043000D02*
X0042500Y0002250D01*
X0042000D02*
X0041500Y0001750D01*
X0042000D02*
X0041500Y0002250D01*
X0041000D02*
X0040500Y0001750D01*
X0041000D02*
X0040500Y0002250D01*
X0040000D02*
X0039500Y0001750D01*
X0040000D02*
X0039500Y0002250D01*
X0022500Y0015500D02*
X0022000D01*
X0022250Y0015750D02*
Y0015250D01*
X0022500Y0011500D02*
X0022000D01*
X0022250Y0011750D02*
Y0011250D01*
X0023750Y0015500D02*
X0023250D01*
X0023500Y0015750D02*
Y0015250D01*
X0023750Y0011500D02*
X0023250D01*
X0023500Y0011750D02*
Y0011250D01*
X0035500Y0007250D02*
X0035000Y0006750D01*
X0035500D02*
X0035000Y0007250D01*
X0035500Y0006250D02*
X0035000Y0005750D01*
X0035500D02*
X0035000Y0006250D01*
X0035500Y0005250D02*
X0035000Y0004750D01*
X0035500D02*
X0035000Y0005250D01*
X0035500Y0002250D02*
X0035000Y0001750D01*
X0035500D02*
X0035000Y0002250D01*
X0035500Y0004250D02*
X0035000Y0003750D01*
X0035500D02*
X0035000Y0004250D01*
X0035500Y0003250D02*
X0035000Y0002750D01*
X0035500D02*
X0035000Y0003250D01*
X0007750Y0004750D02*
X0007250Y0004250D01*
X0007750D02*
X0007250Y0004750D01*
X0008750D02*
X0008250Y0004250D01*
X0008750D02*
X0008250Y0004750D01*
X0009750D02*
X0009250Y0004250D01*
X0009750D02*
X0009250Y0004750D01*
X0010750D02*
X0010250Y0004250D01*
X0010750D02*
X0010250Y0004750D01*
X0011750D02*
X0011250Y0004250D01*
X0011750D02*
X0011250Y0004750D01*
X0027000Y0013250D02*
X0026500D01*
X0026750Y0013500D02*
Y0013000D01*
X0027000Y0014250D02*
X0026500D01*
X0026750Y0014500D02*
Y0014000D01*
X0026500Y0015750D02*
X0026000Y0015250D01*
X0026500D02*
X0026000Y0015750D01*
X0027500D02*
X0027000Y0015250D01*
X0027500D02*
X0027000Y0015750D01*
X0034000Y0019500D02*
X0033500Y0019000D01*
X0034000D02*
X0033500Y0019500D01*
X0035000D02*
X0034500Y0019000D01*
X0035000D02*
X0034500Y0019500D01*
X0034000Y0017250D02*
X0033500D01*
X0033750Y0017500D02*
Y0017000D01*
X0035000Y0017250D02*
X0034500D01*
X0034750Y0017500D02*
Y0017000D01*
X0026000Y0008500D02*
X0025500Y0008000D01*
X0026000D02*
X0025500Y0008500D01*
X0026000Y0007500D02*
X0025500Y0007000D01*
X0026000D02*
X0025500Y0007500D01*
X0015750Y0008250D02*
X0015250Y0007750D01*
X0015750D02*
X0015250Y0008250D01*
X0015750Y0007250D02*
X0015250Y0006750D01*
X0015750D02*
X0015250Y0007250D01*
X0014000Y0008250D02*
X0013500Y0007750D01*
X0014000D02*
X0013500Y0008250D01*
X0014000Y0007250D02*
X0013500Y0006750D01*
X0014000D02*
X0013500Y0007250D01*
G54D50*
G01X0024376Y0020773D02*
X0025124D01*
X0022980Y0019777D02*
Y0019029D01*
X0024337Y0018020D02*
X0025084D01*
G54D32*
%LPC*%
X0056000Y0007000D03*
Y0016000D03*
X0001750Y0001750D03*
Y0021250D03*
X0015500Y0010000D03*
X0013500D03*
X0031750Y0017250D03*
X0030750D03*
X0029750D03*
X0006000Y0012000D03*
X0007000D03*
X0008000D03*
X0009000D03*
X0010000D03*
X0011000D03*
X0012000D03*
X0013000D03*
X0014000D03*
X0015000D03*
X0016000D03*
X0017000D03*
X0018000D03*
X0019000D03*
Y0015000D03*
X0018000D03*
X0017000D03*
X0016000D03*
X0015000D03*
X0014000D03*
X0013000D03*
X0012000D03*
X0011000D03*
X0010000D03*
X0009000D03*
X0008000D03*
X0007000D03*
X0006000D03*
X0024500Y0004000D03*
X0021750D03*
Y0002000D03*
X0024500D03*
X0029000Y0004000D03*
X0026250D03*
Y0002000D03*
X0029000D03*
X0033500Y0004000D03*
X0030750D03*
Y0002000D03*
X0033500D03*
X0015750Y0003250D03*
X0018500D03*
Y0005250D03*
X0015750D03*
X0019000Y0006500D03*
Y0010500D03*
X0024500Y0009250D03*
Y0005250D03*
X0033500Y0007000D03*
X0029500D03*
X0031750Y0018500D03*
X0027750D03*
X0024750Y0011500D03*
Y0015500D03*
X0020500Y0011500D03*
Y0015500D03*
X0007500Y0007000D03*
X0011500D03*
X0017500Y0010500D03*
Y0006500D03*
X0003750Y0004500D03*
X0005750D03*
X0004750Y0005500D03*
X0002000Y0014500D03*
Y0013500D03*
Y0012500D03*
Y0011500D03*
Y0010500D03*
Y0009500D03*
X0030250Y0020000D03*
X0029250D03*
X0013750Y0005000D03*
Y0004000D03*
X0005750Y0019500D03*
X0006750D03*
X0007750D03*
X0008750D03*
X0009750D03*
X0010750D03*
X0011750D03*
X0012750D03*
X0013750D03*
X0014750D03*
X0015750D03*
X0016750D03*
X0017750D03*
X0018750D03*
X0019750D03*
X0020750D03*
X0024750Y0018000D03*
Y0020756D03*
X0022998Y0019380D03*
X0039750Y0021000D03*
X0040750D03*
X0041750D03*
X0042750D03*
X0043750D03*
X0044750D03*
X0046750D03*
X0047750D03*
X0048750D03*
X0049750D03*
X0050750D03*
X0051750D03*
X0053250D03*
X0054250D03*
X0055250D03*
X0056750D03*
X0057750D03*
X0046750Y0002000D03*
X0045750D03*
X0044750D03*
X0043750D03*
X0042750D03*
X0041750D03*
X0040750D03*
X0039750D03*
X0022250Y0015500D03*
Y0011500D03*
X0023500Y0015500D03*
Y0011500D03*
X0035250Y0007000D03*
Y0006000D03*
Y0005000D03*
Y0002000D03*
Y0004000D03*
Y0003000D03*
X0007500Y0004500D03*
X0008500D03*
X0009500D03*
X0010500D03*
X0011500D03*
X0026750Y0013250D03*
Y0014250D03*
X0026250Y0015500D03*
X0027250D03*
X0033750Y0019250D03*
X0034750D03*
X0033750Y0017250D03*
X0034750D03*
X0025750Y0008250D03*
Y0007250D03*
X0015500Y0008000D03*
Y0007000D03*
X0013750Y0008000D03*
Y0007000D03*
X0020000Y0006500D03*
Y0010500D03*
X0026750Y0007750D03*
Y0011450D03*
X0019600Y0003250D03*
Y0005250D03*
X0027250Y0016600D03*
X0023500D03*
X0013750Y0002650D03*
X0010000D03*
X0006500Y0007350D03*
X0002600D03*
X0030750Y0005750D03*
X0027600D03*
X0017750Y0020800D03*
X0021600D03*
%LPD*%
M02*
