%
T1C0.035F200S100
X002000Y009500
X002000Y010500
X002000Y011500
X002000Y012500
X002000Y013500
X002000Y014500
X002600Y007350
X003750Y004500
X004750Y005500
X005750Y004500
X006000Y012000
X006000Y015000
X005750Y019500
X006500Y007350
X006750Y019500
X007000Y012000
X007000Y015000
X007500Y004500
X007750Y019500
X008000Y012000
X008000Y015000
X008500Y004500
X008750Y019500
X009000Y012000
X009000Y015000
X009500Y004500
X009750Y019500
X010000Y002650
X010000Y012000
X010000Y015000
X010500Y004500
X010750Y019500
X011000Y012000
X011000Y015000
X011500Y004500
X011750Y019500
X012000Y012000
X012000Y015000
X012750Y019500
X013000Y012000
X013000Y015000
X013500Y010000
X013750Y002650
X013750Y004000
X013750Y005000
X013750Y007000
X013750Y008000
X013750Y019500
X014000Y012000
X014000Y015000
X014750Y019500
X015000Y012000
X015000Y015000
X015500Y007000
X015500Y008000
X015500Y010000
X015750Y019500
X016000Y012000
X016000Y015000
X016750Y019500
X017000Y012000
X017000Y015000
X017750Y019500
X017750Y020800
X018000Y012000
X018000Y015000
X018750Y019500
X019000Y012000
X019000Y015000
X019600Y003250
X019600Y005250
X019750Y019500
X020000Y006500
X020000Y010500
X020750Y019500
X021600Y020800
X022998Y019380
X023500Y016600
X024750Y018000
X024750Y020756
X025750Y007250
X025750Y008250
X026250Y015500
X026750Y007750
X026750Y011450
X027250Y015500
X027250Y016600
X027600Y005750
X029250Y020000
X030250Y020000
X030750Y005750
X033750Y019250
X034750Y019250
X035250Y002000
X035250Y003000
X035250Y004000
X035250Y005000
X035250Y006000
X035250Y007000
X039750Y002000
X039750Y021000
X040750Y002000
X041750Y002000
X041750Y021000
X040750Y021000
X042750Y002000
X043750Y002000
X043750Y021000
X042750Y021000
X044750Y002000
X045750Y002000
X044750Y021000
X046750Y002000
X046750Y021000
X047750Y021000
X048750Y021000
X049750Y021000
X050750Y021000
X051750Y021000
X053250Y021000
X054250Y021000
X055250Y021000
X056750Y021000
X057750Y021000
T2C0.039F200S100
X007500Y007000
X011500Y007000
X015750Y003250
X015750Y005250
X017500Y006500
X017500Y010500
X018500Y003250
X018500Y005250
X019000Y006500
X019000Y010500
X020500Y011500
X020500Y015500
X021750Y002000
X021750Y004000
X022250Y011500
X023500Y011500
X023500Y015500
X022250Y015500
X024500Y002000
X024500Y004000
X024500Y005250
X024500Y009250
X024750Y011500
X024750Y015500
X026250Y002000
X026250Y004000
X026750Y013250
X026750Y014250
X027750Y018500
X029000Y002000
X029000Y004000
X029500Y007000
X029750Y017250
X030750Y002000
X030750Y004000
X030750Y017250
X031750Y017250
X031750Y018500
X033500Y002000
X033500Y004000
X033500Y007000
X033750Y017250
X034750Y017250
T3C0.118F200S100
X001750Y001750
X001750Y021250
X056000Y007000
X056000Y016000
M30
